<svg width="20" height="20" viewBox="0 0 20 20" fill="none" xmlns="http://www.w3.org/2000/svg">
<path fill-rule="evenodd" clip-rule="evenodd" d="M17.607 5.39309C17.9226 5.0672 17.9143 4.5471 17.5884 4.23143C17.2625 3.91576 16.7424 3.92406 16.4268 4.24996C12.6566 8.39722 9.4193 12.0356 7.95502 13.839L7.95234 13.8356L7.94791 13.8301L7.94349 13.8247L7.93906 13.8192L7.93465 13.8137L7.93022 13.8082L7.92581 13.8028L7.9214 13.7973L7.91698 13.7918L7.91258 13.7864L7.90816 13.7809L7.90376 13.7754L7.89935 13.77L7.89494 13.7645L7.89054 13.7591L7.88614 13.7536L7.88173 13.7482L7.87734 13.7427L7.87294 13.7373L7.86853 13.7318L7.86414 13.7264L7.85975 13.7209L7.85535 13.7155L7.85095 13.71L7.84656 13.7046L7.84217 13.6991L7.83778 13.6937L7.83338 13.6883L7.82899 13.6828L7.8246 13.6774L7.82022 13.6719L7.81582 13.6665L7.81143 13.6611L7.80704 13.6556L7.80266 13.6502L7.79827 13.6447L7.79387 13.6393L7.78949 13.6339L7.7851 13.6284L7.78071 13.623L7.77631 13.6176L7.77193 13.6121L7.76754 13.6067L7.76315 13.6012L7.75876 13.5958L7.75436 13.5904L7.74997 13.5849L7.74558 13.5795L7.74119 13.574L7.73679 13.5686L7.7324 13.5631L7.728 13.5577L7.72361 13.5523L7.71921 13.5468L7.71481 13.5414L7.71041 13.5359L7.706 13.5304L7.70161 13.525L7.69721 13.5195L7.69279 13.5141L7.68839 13.5086L7.68399 13.5032L7.67957 13.4977L7.67517 13.4922L7.67075 13.4868L7.66634 13.4813L7.66192 13.4758L7.6575 13.4704L7.65309 13.4649L7.64866 13.4594L7.64424 13.4539L7.63981 13.4484L7.63538 13.4429L7.63096 13.4375L7.62652 13.432L7.62209 13.4265L7.61765 13.421L7.61321 13.4155L7.60877 13.41L7.60432 13.4045L7.59987 13.399L7.59543 13.3934L7.59098 13.3879L7.58652 13.3824L7.58206 13.3769L7.5776 13.3714L7.57313 13.3658L7.56867 13.3603L7.5642 13.3548L7.55973 13.3492L7.55525 13.3437L7.55077 13.3381L7.54629 13.3326L7.5418 13.327L7.53732 13.3214L7.53281 13.3159L7.52832 13.3103L7.52382 13.3047L7.51932 13.2992L7.51481 13.2936L7.51029 13.288L7.50578 13.2824L7.50126 13.2768L7.49673 13.2712L7.49221 13.2656L7.48767 13.26L7.48314 13.2543L7.4786 13.2487L7.47406 13.2431L7.4695 13.2374L7.46496 13.2318L7.4604 13.2262L7.45583 13.2205L7.45126 13.2148L7.4467 13.2092L7.44212 13.2035L7.43754 13.1978L7.43295 13.1922L7.42836 13.1865L7.42376 13.1808L7.41916 13.1751L7.41456 13.1694L7.40995 13.1637L7.40532 13.1579L7.4007 13.1522L7.39608 13.1465L7.39145 13.1407L7.38681 13.135L7.38217 13.1292L7.37751 13.1235L7.37286 13.1177L7.3682 13.1119L7.36354 13.1062L7.35887 13.1004L7.35418 13.0946L7.3495 13.0888L7.34482 13.083L7.34012 13.0771L7.33542 13.0713L7.33071 13.0655L7.326 13.0597L7.32128 13.0538L7.31655 13.0479L7.31181 13.0421L5.87022 11.248L5.86548 11.2421L5.86072 11.2362L5.85597 11.2303L5.8512 11.2244L5.84643 11.2185L5.84165 11.2125L5.83687 11.2066L5.83207 11.2007L5.82727 11.1947L5.82246 11.1888L5.81764 11.1828L5.81282 11.1768L5.80799 11.1708L5.80316 11.1649L5.79831 11.1589L5.79346 11.1528L5.7886 11.1468L5.78374 11.1408L5.77887 11.1348L5.77398 11.1287L5.7691 11.1227L5.7642 11.1166L5.75929 11.1105L5.75437 11.1044L5.74946 11.0983L5.74453 11.0922L5.73959 11.0861L5.73465 11.08L5.7297 11.0738L5.72473 11.0677L5.71976 11.0615L5.71478 11.0554L5.70979 11.0492L5.7048 11.043L5.69979 11.0368L5.69479 11.0306L5.68976 11.0244L5.68473 11.0181L5.67969 11.0119L5.67464 11.0056L5.66958 10.9994L5.66452 10.9931L5.65945 10.9868L5.65437 10.9805L5.64927 10.9742L5.64417 10.9679L5.63905 10.9616L5.63394 10.9552L5.6288 10.9489L5.62366 10.9425L5.61852 10.9361L5.61336 10.9297L5.60819 10.9233L5.603 10.9169L5.59782 10.9105L5.59262 10.904L5.58742 10.8976L5.58219 10.8911L5.57697 10.8846L5.57173 10.8781L5.56649 10.8716L5.56123 10.8651L5.55596 10.8586L5.55068 10.8521L5.54539 10.8455L5.54009 10.8389L5.53477 10.8324L5.52945 10.8258L5.52413 10.8192L5.51878 10.8125L5.51343 10.8059L5.50807 10.7993L5.50269 10.7926L5.4973 10.7859L5.4919 10.7793L5.4865 10.7726L5.48108 10.7658L5.47565 10.7591L5.47021 10.7524L5.46476 10.7456L5.45929 10.7388L5.45382 10.7321L5.44833 10.7253L5.44283 10.7185L5.43732 10.7116L5.4318 10.7048L5.42627 10.6979L5.42072 10.6911L5.41517 10.6842L5.4096 10.6773L5.40402 10.6704L5.39842 10.6634L5.39281 10.6565L5.38721 10.6495L5.38158 10.6426L5.37594 10.6356L5.37028 10.6286L5.36461 10.6215L5.35894 10.6145L5.35324 10.6075L5.34754 10.6004L5.34183 10.5933L5.3361 10.5862L5.33036 10.5791L5.3246 10.572L5.31883 10.5648L5.31305 10.5577L5.30726 10.5505L5.30145 10.5433L5.29563 10.5361L5.28981 10.5289L5.28396 10.5216L5.2781 10.5144L5.27223 10.5071L5.26634 10.4998L5.26044 10.4925L5.25452 10.4852L5.2486 10.4778L5.24266 10.4705L5.2367 10.4631L5.23074 10.4557L5.22476 10.4483L5.21876 10.4409L5.21276 10.4334L5.20673 10.4259L5.2007 10.4185L5.19464 10.411L5.18858 10.4035L5.1825 10.3959L5.1764 10.3884L5.1703 10.3808L5.16418 10.3732L5.15803 10.3656L5.15189 10.358L5.14572 10.3504L5.13953 10.3427L5.13334 10.335L5.12713 10.3273L5.12091 10.3196L5.11467 10.3119L5.10841 10.3041L5.10214 10.2964L5.09586 10.2886L5.08955 10.2808L5.08324 10.273L5.07691 10.2651L5.07056 10.2572L5.0642 10.2494L5.05782 10.2415L5.05143 10.2335L5.04502 10.2256L5.0386 10.2176L5.03215 10.2097L5.0257 10.2017L5.01923 10.1937L5.01274 10.1856L5.00624 10.1776L4.99972 10.1695L4.99319 10.1614L4.98664 10.1533L4.98007 10.1451L4.97349 10.137L4.96689 10.1288L4.96028 10.1206L4.95364 10.1124L4.94699 10.1042L4.94032 10.0959L4.93364 10.0876L4.92694 10.0793L4.92023 10.071L4.91349 10.0627L4.90675 10.0543L4.89998 10.0459L4.8932 10.0375L4.88639 10.0291L4.87958 10.0206L4.87275 10.0122L4.86589 10.0037L4.85902 9.99518L4.85214 9.98665L4.84524 9.97809L4.83832 9.96952L4.83137 9.96092L4.82442 9.95231L4.81745 9.94367L4.81045 9.935L4.80344 9.92633L4.79642 9.91762L4.78938 9.90889L4.78231 9.90014L4.77524 9.89136L4.76814 9.88258L4.76102 9.87376L4.75389 9.86492L4.74673 9.85606L4.73956 9.84717L4.73236 9.83826L4.72516 9.82933L4.71794 9.82038L4.71069 9.8114L4.70342 9.80241L4.69614 9.79338L4.68884 9.78433L4.68153 9.77526L4.67419 9.76617L4.66683 9.75706L4.65944 9.74792L4.65205 9.73877L4.64464 9.72958L4.63721 9.72036L4.62975 9.71113L4.62228 9.70187L4.61479 9.6926L4.60728 9.68329L4.59975 9.67396L4.5922 9.66461L4.58463 9.65523L4.57704 9.64582L4.56943 9.6364L4.5618 9.62695L4.55416 9.61748L4.54649 9.60798L4.5388 9.59845L4.53109 9.5889L4.52337 9.57932L4.51562 9.56973L4.50785 9.56011L4.50006 9.55046L4.49225 9.54078L4.48443 9.53108L4.47657 9.52136L4.46871 9.51161C4.46871 9.51161 4.74578 9.8549 4.46081 9.50184C4.17584 9.14878 3.65862 9.09359 3.30556 9.37857C2.95251 9.66354 2.89732 10.1808 3.18229 10.5338L3.19018 10.5436L3.19805 10.5533L3.2059 10.5631L3.21373 10.5728L3.22154 10.5824L3.22933 10.5921L3.23709 10.6017L3.24484 10.6113L3.25257 10.6209L3.26028 10.6304L3.26797 10.64L3.27563 10.6495L3.28328 10.6589L3.29091 10.6684L3.29852 10.6778L3.30611 10.6872L3.31368 10.6966L3.32123 10.7059L3.32876 10.7153L3.33627 10.7246L3.34376 10.7339L3.35123 10.7431L3.35868 10.7524L3.36612 10.7616L3.37353 10.7707L3.38093 10.7799L3.3883 10.789L3.39566 10.7982L3.403 10.8073L3.41032 10.8163L3.41762 10.8254L3.4249 10.8344L3.43217 10.8434L3.43941 10.8524L3.44664 10.8613L3.45385 10.8702L3.46104 10.8792L3.46821 10.888L3.47536 10.8969L3.48249 10.9057L3.48961 10.9146L3.49671 10.9234L3.50379 10.9321L3.51085 10.9409L3.5179 10.9496L3.52492 10.9583L3.53193 10.967L3.53892 10.9757L3.5459 10.9843L3.55285 10.9929L3.55979 11.0015L3.56671 11.0101L3.57362 11.0186L3.5805 11.0272L3.58737 11.0357L3.59422 11.0442L3.60106 11.0526L3.60787 11.0611L3.61467 11.0695L3.62146 11.0779L3.62822 11.0863L3.63497 11.0946L3.6417 11.103L3.64842 11.1113L3.65512 11.1196L3.6618 11.1279L3.66847 11.1361L3.67511 11.1444L3.68175 11.1526L3.68836 11.1608L3.69496 11.169L3.70155 11.1771L3.70811 11.1853L3.71467 11.1934L3.7212 11.2015L3.72772 11.2095L3.73422 11.2176L3.74071 11.2256L3.74718 11.2337L3.75364 11.2417L3.76007 11.2496L3.7665 11.2576L3.77291 11.2655L3.7793 11.2735L3.78568 11.2813L3.79204 11.2892L3.79839 11.2971L3.80472 11.3049L3.81103 11.3128L3.81733 11.3206L3.82361 11.3284L3.82989 11.3361L3.83614 11.3439L3.84239 11.3516L3.84861 11.3593L3.85482 11.367L3.86101 11.3747L3.8672 11.3823L3.87337 11.39L3.87951 11.3976L3.88566 11.4052L3.89178 11.4128L3.89788 11.4204L3.90398 11.4279L3.91006 11.4354L3.91612 11.443L3.92217 11.4505L3.92821 11.4579L3.93423 11.4654L3.94024 11.4728L3.94624 11.4803L3.95222 11.4877L3.95818 11.4951L3.96414 11.5024L3.97008 11.5098L3.976 11.5171L3.98192 11.5245L3.98782 11.5318L3.9937 11.5391L3.99957 11.5464L4.00543 11.5536L4.01128 11.5609L4.01711 11.5681L4.02293 11.5753L4.02873 11.5825L4.03453 11.5897L4.04031 11.5968L4.04607 11.604L4.05183 11.6111L4.05757 11.6182L4.0633 11.6253L4.06902 11.6324L4.07472 11.6394L4.08041 11.6465L4.08609 11.6535L4.09176 11.6606L4.09741 11.6676L4.10305 11.6745L4.10868 11.6815L4.1143 11.6885L4.1199 11.6954L4.1255 11.7024L4.13107 11.7093L4.13665 11.7162L4.1422 11.723L4.14774 11.7299L4.15328 11.7368L4.1588 11.7436L4.16431 11.7504L4.1698 11.7573L4.17529 11.764L4.18077 11.7708L4.18624 11.7776L4.19169 11.7844L4.19712 11.7911L4.20256 11.7978L4.20798 11.8045L4.21339 11.8112L4.21878 11.8179L4.22417 11.8246L4.22955 11.8313L4.2349 11.8379L4.24026 11.8445L4.2456 11.8511L4.25093 11.8578L4.25625 11.8643L4.26156 11.8709L4.26687 11.8775L4.27216 11.884L4.27744 11.8906L4.2827 11.8971L4.28796 11.9036L4.29321 11.9101L4.29844 11.9166L4.30367 11.9231L4.30889 11.9296L4.3141 11.936L4.3193 11.9424L4.32448 11.9489L4.32966 11.9553L4.33483 11.9617L4.33999 11.9681L4.34514 11.9745L4.35028 11.9808L4.35541 11.9872L4.36053 11.9935L4.36565 11.9999L4.37075 12.0062L4.37584 12.0125L4.38093 12.0188L4.386 12.0251L4.39107 12.0314L4.39612 12.0376L4.40117 12.0439L4.40621 12.0501L4.41123 12.0564L4.41626 12.0626L4.42127 12.0688L4.42627 12.075L4.43127 12.0812L4.43625 12.0874L4.44124 12.0935L4.44621 12.0997L4.45117 12.1058L4.45612 12.112L4.46106 12.1181L4.466 12.1242L4.47093 12.1303L4.47585 12.1364L4.48077 12.1425L4.48568 12.1486L4.49057 12.1546L4.49546 12.1607L4.50034 12.1667L4.50522 12.1728L4.51008 12.1788L4.51494 12.1848L4.51979 12.1908L4.52464 12.1968L4.52947 12.2028L4.5343 12.2088L4.53912 12.2148L4.54394 12.2208L4.54875 12.2267L4.55354 12.2327L4.55834 12.2386L4.56313 12.2445L4.5679 12.2505L4.57268 12.2564L4.57745 12.2623L4.5822 12.2682L4.58695 12.274L4.5917 12.2799L4.59644 12.2858L4.60117 12.2917L4.6059 12.2975L4.61062 12.3034L4.61533 12.3092L4.62004 12.315L4.62474 12.3209L4.62944 12.3267L4.63413 12.3325L4.63881 12.3383L4.6435 12.3441L4.64816 12.3499L4.65283 12.3557L4.65748 12.3614L4.66214 12.3672L4.66679 12.373L4.67144 12.3787L4.67607 12.3845L4.68071 12.3902L4.68533 12.3959L4.68995 12.4017L4.69457 12.4074L4.69918 12.4131L4.70379 12.4188L4.70839 12.4245L4.71299 12.4302L4.71758 12.4359L4.72217 12.4416L4.72674 12.4472L4.73132 12.4529L4.73589 12.4586L4.74046 12.4642L4.74503 12.4699L4.74958 12.4755L4.75413 12.4812L4.75868 12.4868L4.76323 12.4924L4.76777 12.4981L4.7723 12.5037L4.77684 12.5093L4.78136 12.5149L4.78588 12.5205L4.79041 12.5261L4.79492 12.5317L4.79943 12.5373L4.80395 12.5429L4.80845 12.5485L4.81295 12.554L4.81744 12.5596L4.82194 12.5652L4.82642 12.5707L4.83091 12.5763L4.83539 12.5818L4.83987 12.5874L4.84435 12.5929L4.84882 12.5985L4.85329 12.604L4.85776 12.6096L4.86223 12.6151L4.86669 12.6206L4.87115 12.6261L4.8756 12.6317L4.88005 12.6372L4.8845 12.6427L4.88895 12.6482L4.89339 12.6537L4.89784 12.6592L4.90228 12.6647L4.90671 12.6702L4.91115 12.6757L4.91559 12.6812L4.92001 12.6867L4.92444 12.6922L4.92886 12.6976L4.93329 12.7031L4.93771 12.7086L4.94213 12.7141L4.94655 12.7195L4.95097 12.725L4.95538 12.7305L4.95979 12.736L4.9642 12.7414L4.96861 12.7469L4.97302 12.7523L4.97742 12.7578L4.98183 12.7633L4.98624 12.7687L4.99064 12.7742L4.99503 12.7796L4.99944 12.7851L5.00384 12.7905L5.00823 12.796L5.01262 12.8014L5.01703 12.8069L5.02142 12.8123L5.02581 12.8178L5.0302 12.8232L5.0346 12.8286L5.03899 12.8341L5.04338 12.8395L5.04777 12.845L5.05217 12.8504L5.05656 12.8558L5.06094 12.8613L5.06533 12.8667L5.06973 12.8722L5.07412 12.8776L5.0785 12.883L5.08289 12.8885L5.08728 12.8939L5.09167 12.8993L5.09606 12.9048L5.10045 12.9102L5.10484 12.9157L5.10922 12.9211L5.11362 12.9265L5.11801 12.932L5.1224 12.9374L5.12679 12.9429L5.13119 12.9483L5.13558 12.9537L5.13997 12.9592L5.14437 12.9646L5.14877 12.9701L5.15316 12.9755L5.15756 12.981L5.16197 12.9864L5.16636 12.9919L5.17076 12.9973L5.17517 13.0028L5.17957 13.0082L5.18397 13.0137L5.18839 13.0192L5.19279 13.0246L5.1972 13.0301L5.20161 13.0355L5.20602 13.041L5.21044 13.0465L5.21485 13.052L5.21928 13.0574L5.22369 13.0629L5.22812 13.0684L5.23254 13.0739L5.23697 13.0794L5.24139 13.0848L5.24583 13.0903L5.25026 13.0958L5.2547 13.1013L5.25914 13.1068L5.26357 13.1123L5.26802 13.1178L5.27246 13.1233L5.27691 13.1288L5.28136 13.1343L5.28581 13.1399L5.29027 13.1454L5.29472 13.1509L5.29919 13.1564L5.30365 13.162L5.30812 13.1675L5.31259 13.173L5.31707 13.1786L5.32155 13.1841L5.32603 13.1897L5.33051 13.1952L5.335 13.2008L5.33949 13.2064L5.34398 13.2119L5.34849 13.2175L5.35299 13.2231L5.35749 13.2287L5.362 13.2343L5.36651 13.2398L5.37103 13.2454L5.37555 13.251L5.38008 13.2566L5.38461 13.2623L5.38913 13.2679L5.39368 13.2735L5.39822 13.2791L5.40276 13.2848L5.40732 13.2904L5.41187 13.296L5.41643 13.3017L5.421 13.3073L5.42557 13.313L5.43013 13.3187L5.43471 13.3243L5.43929 13.33L5.44388 13.3357L5.44848 13.3414L5.45307 13.3471L5.45767 13.3528L5.46228 13.3585L5.46689 13.3642L5.47152 13.3699L5.47614 13.3757L5.48077 13.3814L5.48541 13.3871L5.49004 13.3929L5.49468 13.3986L5.49934 13.4044L5.50399 13.4102L5.50866 13.4159L5.51333 13.4217L5.51799 13.4275L5.52268 13.4333L5.52736 13.4391L5.53206 13.4449L5.53676 13.4508L5.54146 13.4566L5.54617 13.4624L5.55088 13.4683L5.55561 13.4741L5.56033 13.48L5.56507 13.4858L5.56982 13.4917L5.57456 13.4976L5.57931 13.5035L5.58408 13.5094L5.58884 13.5153L5.59362 13.5212L5.5984 13.5271L5.60319 13.5331L5.60799 13.539L5.61279 13.545L5.6176 13.5509L5.62241 13.5569L5.62723 13.5629L5.63208 13.5688L5.63691 13.5748L5.64176 13.5808L5.64661 13.5869L5.65147 13.5929L5.65634 13.5989L5.66121 13.605L5.6661 13.611L5.67099 13.6171L5.67589 13.6231L5.6808 13.6292L5.68572 13.6353L5.69063 13.6414L5.69557 13.6475L5.70051 13.6536L5.70545 13.6598L5.71042 13.6659L5.71538 13.6721L5.72035 13.6782L5.72534 13.6844L5.73032 13.6906L5.73533 13.6968L5.74033 13.703L5.74535 13.7092L5.75036 13.7154L5.7554 13.7216L5.76044 13.7279L5.76549 13.7341L5.77055 13.7404L5.77562 13.7467L5.7807 13.753L5.78579 13.7593L5.79088 13.7656L5.79599 13.7719L5.8011 13.7783L5.80623 13.7846L5.81137 13.791L5.8165 13.7973L5.82166 13.8037L5.82682 13.8101L5.83199 13.8165L5.83717 13.8229L5.84236 13.8294L5.84757 13.8358L5.8501 13.839C5.89206 13.8972 7.37924 15.739 7.43777 15.7863C7.59005 15.9092 7.77285 15.9688 7.9544 15.9686C8.13597 15.9688 8.31879 15.9092 8.47109 15.7863C8.52962 15.739 8.57996 15.6854 8.62193 15.6272C9.31566 14.7677 9.76544 14.2105 10.2321 13.6686C11.0905 12.6718 12.5273 11.1947 17.6061 5.39395L17.607 5.39309Z" fill="black"/>
</svg>
