<svg width="20" height="20" viewBox="0 0 20 20" fill="none" xmlns="http://www.w3.org/2000/svg">
<path fill-rule="evenodd" clip-rule="evenodd" d="M16.549 17.5705L2.32798 3.34957C1.88357 2.90516 1.67681 2.22322 1.96955 1.93048C2.26229 1.63773 2.94428 1.84455 3.38864 2.28891L17.6096 16.5099C18.054 16.9543 18.2608 17.6363 17.9681 17.929C17.7029 18.1942 16.9934 18.0149 16.549 17.5705Z" fill="white"/>
<path fill-rule="evenodd" clip-rule="evenodd" d="M17.6703 3.35107L3.4493 17.572C3.00489 18.0165 2.32295 18.2232 2.03021 17.9305C1.73747 17.6377 1.94428 16.9557 2.38864 16.5114L16.6096 2.29041C17.054 1.84601 17.736 1.63919 18.0288 1.93193C18.2939 2.1971 18.1147 2.90667 17.6703 3.35107Z" fill="white"/>
</svg>
