<svg width="35" height="35" viewBox="0 0 35 35" fill="none" xmlns="http://www.w3.org/2000/svg">
<path d="M17.9004 13.2808V13.9077" stroke="#070902" stroke-width="2" stroke-miterlimit="10"/>
<path d="M17.9006 31.3492C17.9006 31.3492 6.50098 25.7492 6.50098 14.2498C6.50098 11.2264 7.70183 8.32684 9.83968 6.18899C11.9775 4.05114 14.8773 2.8501 17.9006 2.8501C20.924 2.8501 23.8234 4.05114 25.9612 6.18899C28.0991 8.32684 29.3003 11.2264 29.3003 14.2498C29.3003 25.7492 17.9006 31.3492 17.9006 31.3492Z" fill="#F2552C" stroke="#070902" stroke-width="2" stroke-linejoin="round"/>
<path d="M17.9004 13.2808C17.9004 12.6194 18.163 11.9851 18.6307 11.5175C19.0983 11.0498 19.7327 10.7871 20.3941 10.7871C21.0555 10.7871 21.6896 11.0498 22.1572 11.5175C22.6249 11.9851 22.8878 12.6194 22.8878 13.2808C22.8878 17.2992 17.9004 19.5078 17.9004 19.5078C17.9004 19.5078 12.9131 17.2992 12.9131 13.2808C12.9131 12.6194 13.1757 11.9851 13.6433 11.5175C14.111 11.0498 14.7454 10.7871 15.4068 10.7871C16.0681 10.7871 16.7022 11.0498 17.1699 11.5175C17.6375 11.9851 17.9004 12.6194 17.9004 13.2808" fill="#FFF4E9"/>
<path d="M17.9004 13.2808C17.9004 12.6194 18.163 11.9851 18.6307 11.5175C19.0983 11.0498 19.7327 10.7871 20.3941 10.7871C21.0555 10.7871 21.6896 11.0498 22.1572 11.5175C22.6249 11.9851 22.8878 12.6194 22.8878 13.2808C22.8878 17.2992 17.9004 19.5078 17.9004 19.5078C17.9004 19.5078 12.9131 17.2992 12.9131 13.2808C12.9131 12.6194 13.1757 11.9851 13.6433 11.5175C14.111 11.0498 14.7454 10.7871 15.4068 10.7871C16.0681 10.7871 16.7022 11.0498 17.1699 11.5175C17.6375 11.9851 17.9004 12.6194 17.9004 13.2808" stroke="#070902" stroke-width="2" stroke-miterlimit="10"/>
</svg>
