<svg width="22" height="23" viewBox="0 0 22 23" fill="none" xmlns="http://www.w3.org/2000/svg">
<path d="M3.87545 9.29466C3.7225 9.89009 3.64534 10.5025 3.64581 11.1172C3.64581 11.746 3.726 12.3566 3.87545 12.9398H6.47079C6.34793 11.7279 6.34793 10.5066 6.47079 9.29466H3.87545ZM4.62088 7.47209H6.75875C7.00115 6.36306 7.35109 5.36976 7.7803 4.54323C6.45728 5.1806 5.35648 6.20107 4.62088 7.47209ZM17.9967 9.29466H15.4014C15.5242 10.5066 15.5242 11.7279 15.4014 12.9398H17.9967C18.3035 11.7441 18.3035 10.4903 17.9967 9.29466ZM17.2513 7.47209C16.5157 6.20107 15.4149 5.1806 14.0918 4.54323C14.522 5.36976 14.871 6.36306 15.1134 7.47209H17.2513ZM8.30429 9.29466C8.23601 9.89978 8.20194 10.5083 8.20222 11.1172C8.20222 11.7415 8.23685 12.352 8.30429 12.9398H13.5679C13.7051 11.7286 13.7051 10.5058 13.5679 9.29466H8.30429ZM8.63053 7.47209H13.2416C13.0758 6.78708 12.8366 6.12195 12.5281 5.48823C11.9558 4.34457 11.3434 3.82696 10.9361 3.82696C10.5278 3.82696 9.91635 4.34457 9.34406 5.48823C9.05701 6.06416 8.81552 6.73395 8.63053 7.47209ZM4.62088 14.7624C5.35648 16.0334 6.45728 17.0539 7.7803 17.6912C7.35017 16.8647 7.00115 15.8714 6.75875 14.7624H4.62088ZM17.2513 14.7624H15.1134C14.871 15.8714 14.5211 16.8647 14.0918 17.6912C15.4149 17.0539 16.5157 16.0334 17.2513 14.7624ZM8.63053 14.7624C8.81552 15.5005 9.05701 16.1703 9.34406 16.7462C9.91635 17.8899 10.5287 18.4075 10.9361 18.4075C11.3443 18.4075 11.9558 17.8899 12.5281 16.7462C12.8151 16.1703 13.0566 15.5005 13.2416 14.7624H8.63053ZM10.9361 20.2301C5.90306 20.2301 1.82324 16.1502 1.82324 11.1172C1.82324 6.08421 5.90306 2.00439 10.9361 2.00439C15.9691 2.00439 20.0489 6.08421 20.0489 11.1172C20.0489 16.1502 15.9691 20.2301 10.9361 20.2301Z" fill="black"/>
</svg>
