<svg width="88" height="65" viewBox="0 0 88 65" fill="none" xmlns="http://www.w3.org/2000/svg">
<path fill-rule="evenodd" clip-rule="evenodd" d="M43.9695 -0.000929468C48.2323 -0.00819942 52.4547 0.826288 56.3943 2.45466C60.3339 4.08303 63.9132 6.47324 66.9269 9.48816L46.8532 9.03707L71.2929 14.8933C74.6781 20.141 76.4701 26.2572 76.4523 32.502C76.4523 33.0538 76.4523 33.6056 76.412 34.1493L85.5023 36.6424L59.6772 35.2207L70.0282 35.7926L55.275 35.4583L75.5098 40.2915C74.1041 45.9593 71.1945 51.1426 67.088 55.2944L52.4516 54.9641L64.309 57.8036C60.563 60.8158 56.1953 62.9591 51.5209 64.0791C46.8464 65.1992 41.9816 65.2679 37.2773 64.2804C32.5731 63.293 28.1465 61.2739 24.317 58.3688C20.4874 55.4637 17.3502 51.745 15.1316 47.4808L26.9044 47.7466L13.8065 44.6091C12.0322 40.1861 11.2508 35.4274 11.5173 30.6692C11.7838 25.911 13.0919 21.2694 15.3491 17.0722L25.4383 17.3018L7.53955 12.3961L17.9832 12.968C21.0074 8.93787 24.9288 5.6676 29.4366 3.41648C33.9445 1.16537 38.9147 -0.00468226 43.9533 -0.000929468H43.9695Z" fill="#6C5DD3"/>
<path d="M8.07746 35.5561L8.10566 29.6516L5.98309 31.7701L3.85248 29.6516V37.574H0.694824V23.9727H3.85248V25.2373L5.96296 27.3518L8.08551 25.2373V24.0049H11.2432V35.242C11.2432 37.9942 10.1691 39.8335 8.02107 40.7598L6.96583 37.6142C7.29602 37.3789 7.56791 37.071 7.7606 36.7142C7.9533 36.3575 8.06169 35.9613 8.07746 35.5561Z" fill="white"/>
<path d="M13.3359 37.5627V37.5828V37.5627L13.2916 37.5828L12.2363 34.4372C12.5697 34.1984 12.8426 33.8851 13.0335 33.5222C13.2244 33.1593 13.3279 32.7569 13.3359 32.3469V27.111H12.2565V23.9735H13.3439V22.9585H16.4815V23.9936H22.3537V37.5385L19.2484 38.5857L19.2122 32.3026H16.4734C16.409 34.9044 15.3631 36.6578 13.3359 37.5627ZM16.4492 29.2215H19.2122V27.119H16.4492V29.2215Z" fill="white"/>
<path d="M29.4677 28.2734V24.0082H32.6253V37.6054L29.4878 38.7372V34.0329C29.5167 33.5694 29.4362 33.1055 29.2529 32.6788C29.0696 32.252 28.7886 31.8743 28.4326 31.5761L26.3704 29.675V37.5974H23.2329V23.9316H26.3906V25.3937L29.4677 28.2734Z" fill="white"/>
<path d="M34.6593 33.4142V27.1311H33.6362V23.9936H34.6593V22.9585H37.7968V23.9936H44.0678V27.1311H37.7887V33.4021C37.7696 33.5429 37.7835 33.6862 37.8294 33.8207C37.8753 33.9552 37.952 34.0771 38.0532 34.1768C38.1545 34.2764 38.2776 34.3512 38.4127 34.395C38.5479 34.4388 38.6914 34.4505 38.8319 34.4292H40.9222V29.2215H44.0597V37.5627H38.8238C36.0474 37.5627 34.6593 36.1799 34.6593 33.4142Z" fill="white"/>
<path d="M46.1376 37.5627V37.5828V37.5627L46.0974 37.5828L45.0381 34.4372C45.3721 34.1991 45.6456 33.8859 45.8366 33.5229C46.0275 33.1598 46.1306 32.757 46.1376 32.3469V27.111H45.0623V23.9735H46.1457V22.9585H49.2832V23.9936H55.1595V37.5385L52.0542 38.5857L52.0139 32.3026H49.2752C49.2134 34.9044 48.1676 36.6578 46.1376 37.5627ZM49.255 29.2215H52.0139V27.119H49.255V29.2215Z" fill="white"/>
<path d="M63.3368 31.3747C62.9958 31.2138 62.6264 31.1217 62.2497 31.1037C61.873 31.0858 61.4965 31.1423 61.1417 31.27L60.1912 31.5519V37.5934H57.0537V32.4823L56.4375 32.6595L55.5474 29.6509L57.0537 29.1998V23.9316H60.1791V28.2734L60.2718 28.2452C61.255 27.9217 62.2988 27.8253 63.3247 27.9633V23.98H66.4784V29.7475L64.9398 30.9115L66.4663 31.9023V37.5772H63.3207V31.3707L63.3368 31.3747Z" fill="white"/>
<path d="M68.5521 37.5627V37.5828V37.5627L68.5118 37.5828L67.4565 34.4372C67.79 34.1989 68.0629 33.8856 68.2532 33.5225C68.4435 33.1594 68.5459 32.7568 68.5521 32.3469V27.111H67.4767V23.9735H68.5641V22.9585H71.7017V23.9936H77.5739V37.5385L74.4686 38.5857L74.4284 32.3026H71.6896C71.6251 34.9044 70.5793 36.6578 68.5521 37.5627ZM71.6654 29.2215H74.4284V27.119H71.6654V29.2215Z" fill="white"/>
<path d="M84.6825 28.2734V24.0082H87.8402V37.6054L84.7027 38.7372V34.0329C84.7315 33.5694 84.6511 33.1055 84.4678 32.6788C84.2845 32.252 84.0035 31.8743 83.6474 31.5761L81.5853 29.675V37.5974H78.4478V23.9316H81.6054V25.3937L84.6825 28.2734Z" fill="white"/>
<path d="M35.9471 47.4076C35.773 48.1185 35.526 48.8095 35.21 49.4697C35.1899 49.5341 35.1536 49.6066 35.0731 49.8L34.1226 48.9944C34.5705 48.3039 34.8948 47.5407 35.0811 46.739L35.9471 47.4076ZM34.7388 44.7735C35.2047 45.032 35.6433 45.3369 36.0478 45.6837L35.4275 46.602C35.0415 46.2254 34.6083 45.9005 34.1387 45.6354L34.7388 44.7735ZM35.0006 42.957C35.461 43.2191 35.8883 43.5355 36.2733 43.8995L35.5685 44.7574C35.1964 44.3796 34.7767 44.0519 34.3199 43.7827L35.0006 42.957ZM40.603 47.8748C40.276 48.2099 39.9157 48.5109 39.5276 48.7729C39.9374 48.8298 40.3504 48.8594 40.7641 48.8615H41.0461C40.8809 49.176 40.7525 49.5085 40.6634 49.8523C39.8778 49.8037 39.1033 49.6423 38.3637 49.373C37.6747 49.6379 36.9495 49.7968 36.2129 49.8443C36.112 49.5043 35.9584 49.1822 35.7578 48.8897C36.2297 48.8969 36.7013 48.8632 37.1674 48.789C36.9661 48.6561 36.8815 48.5917 36.6277 48.3863L37.2279 48.1043H36.8936C36.638 48.1029 36.3826 48.115 36.1283 48.1406V47.3069C36.3852 47.3328 36.6435 47.3422 36.9016 47.3351H39.439C39.6395 47.3419 39.8402 47.3325 40.0391 47.3069L40.603 47.8748ZM40.2002 45.5186C40.4261 45.5219 40.6521 45.5124 40.8769 45.4904C40.8557 45.6722 40.8463 45.8552 40.8487 46.0382V46.6101C40.8583 46.809 40.8825 47.0068 40.9212 47.2021C40.748 47.2021 40.4822 47.182 40.1761 47.182H36.6277C36.4022 47.182 36.2653 47.182 36.0679 47.2021C36.0772 47.0318 36.0772 46.861 36.0679 46.6906V45.9939C36.0774 45.8302 36.0774 45.6661 36.0679 45.5025C36.2605 45.5234 36.4542 45.5327 36.6479 45.5307L40.2002 45.5186ZM37.1151 45.3293C36.9016 45.3293 36.7486 45.3293 36.4787 45.3293C36.4787 45.1118 36.5029 44.9587 36.5029 44.7493V43.6498C36.5037 43.4588 36.4943 43.2679 36.4747 43.0779C36.71 43.104 36.9468 43.1147 37.1836 43.1101H39.7129C39.9524 43.1142 40.1919 43.1021 40.4298 43.0738C40.4093 43.2799 40.3998 43.487 40.4016 43.6941V44.7211C40.3992 44.9242 40.4086 45.1273 40.4298 45.3293C40.1761 45.3293 40.0593 45.3293 39.8096 45.3293H37.1151ZM37.3245 46.1711H36.9419V46.5094H37.3245V46.1711ZM37.5299 43.976H39.3101V43.7746H37.5299V43.976ZM37.5299 44.7372H39.3101V44.5278H37.5299V44.7372ZM37.7031 48.1164C37.9069 48.2582 38.1257 48.3771 38.3556 48.4709C38.5842 48.3717 38.8038 48.2532 39.0121 48.1164H37.7031ZM38.6214 46.1711H38.2187V46.5094H38.6214V46.1711ZM39.9223 46.5094V46.1711H39.5196V46.5094H39.9223Z" fill="white"/>
<path d="M42.5319 44.2028C42.1856 44.2028 41.8472 44.2028 41.521 44.2471V43.1758C41.853 43.2078 42.1864 43.2226 42.5199 43.2201H47.1919C47.5463 43.2201 47.8645 43.2201 48.2028 43.1758V44.2632C47.8846 44.2351 47.5463 44.2189 47.2 44.2189H45.3916V44.6217H46.0843C46.2809 44.6269 46.4775 44.6162 46.6723 44.5895C46.6483 44.7764 46.6389 44.9649 46.6441 45.1533V47.7673C46.6366 47.9528 46.6433 48.1386 46.6643 48.3231H46.326H43.3777H43.0314C43.051 48.1385 43.0578 47.9528 43.0515 47.7673V45.1493C43.0562 44.9609 43.0468 44.7724 43.0233 44.5855C43.2181 44.6121 43.4148 44.6229 43.6113 44.6177H44.3041V44.2149L42.5319 44.2028ZM48.0256 44.6539C47.9954 44.947 47.9806 45.2414 47.9813 45.536V48.7581C47.9813 49.1165 47.9813 49.4347 48.0296 49.8254H46.8939V49.5515H42.7937V49.8254H41.67C41.7063 49.4775 41.7238 49.128 41.7224 48.7782V45.4997C41.7224 45.2339 41.7224 44.952 41.6781 44.6499H42.7937C42.7667 44.846 42.7572 45.0442 42.7655 45.242V48.5607H46.914V45.2138C46.9196 45.0254 46.9101 44.8368 46.8858 44.6499L48.0256 44.6539ZM43.998 45.5561V45.9951H44.4008V45.5601L43.998 45.5561ZM43.998 46.8852V47.3847H44.4008V46.8852H43.998ZM45.7621 45.9911V45.5561H45.3271V45.9951L45.7621 45.9911ZM45.7621 47.3847V46.8852H45.3271V47.3847H45.7621Z" fill="white"/>
<path d="M50.0176 48.8142C50.0118 49.1384 50.0266 49.4626 50.0619 49.7849H48.8979C48.9336 49.4599 48.9484 49.133 48.9423 48.8062V44.0294C48.9423 43.6266 48.9423 43.4293 48.9141 43.1957C49.1561 43.2218 49.3996 43.2326 49.6431 43.2279H51.1615C51.4076 43.2345 51.6539 43.2237 51.8985 43.1957C51.8985 43.4132 51.8784 43.5985 51.8784 43.8643V45.1894C51.8667 45.3986 51.8667 45.6084 51.8784 45.8177C51.7173 45.8177 51.4998 45.8177 51.2823 45.8177H50.0015L50.0176 48.8142ZM50.0176 44.2348H50.8795V43.9811H50.0176V44.2348ZM50.0176 45.0887H50.8795V44.8269H50.0176V45.0887ZM53.6425 48.5242V48.7055H53.7674C54.1701 48.7055 54.1701 48.7055 54.1701 48.5363V45.7895H52.8249C52.6316 45.7895 52.3859 45.7895 52.2328 45.7895C52.2436 45.5775 52.2436 45.3651 52.2328 45.1531V43.8361C52.2328 43.5662 52.2328 43.385 52.2087 43.1675C52.4547 43.1943 52.7023 43.2051 52.9497 43.1997H54.5245C54.7693 43.2045 55.0142 43.1937 55.2576 43.1675C55.2324 43.4352 55.2216 43.7041 55.2253 43.973V48.6853C55.2253 49.5432 55.0079 49.7124 53.9083 49.7124H53.3686C53.3243 49.4103 53.3082 49.3096 53.2599 49.0921H51.5159V49.3942H50.4889C50.509 49.1687 50.5171 48.9109 50.5171 48.6289V46.6957C50.5171 46.4419 50.5171 46.2567 50.4969 46.0795C50.6902 46.0795 50.8634 46.1036 51.1252 46.1036H53.0222C53.2961 46.1036 53.4532 46.1036 53.6505 46.0795C53.6505 46.2486 53.6264 46.4218 53.6264 46.6957L53.6425 48.5242ZM51.532 47.2434H52.6477V46.9535H51.532V47.2434ZM51.532 48.2624H52.6477V47.9684H51.532V48.2624ZM53.2599 44.2348H54.1701V43.9811H53.2599V44.2348ZM53.2599 45.0887H54.1701V44.8269H53.2599V45.0887Z" fill="white"/>
</svg>
