<svg width="152" height="152" viewBox="0 0 152 152" fill="none" xmlns="http://www.w3.org/2000/svg">
<path d="M70.9554 66.2949C71.4297 60.0613 80.57 60.0613 81.0443 66.2949C81.2339 68.7862 83.2137 70.766 85.7049 70.9555C91.9385 71.4299 91.9385 80.5701 85.7049 81.0444C83.2137 81.234 81.2339 83.2138 81.0443 85.7051C80.57 91.9386 71.4297 91.9386 70.9554 85.705C70.7658 83.2138 68.786 81.234 66.2948 81.0444C60.0612 80.5701 60.0612 71.4299 66.2948 70.9555C68.786 70.766 70.7658 68.7862 70.9554 66.2949Z" fill="#EC6973"/>
<path d="M73.1723 78.8284C71.6102 77.2663 71.6102 74.7337 73.1723 73.1716C74.7344 71.6095 77.2671 71.6095 78.8292 73.1716C80.3913 74.7337 80.3913 77.2663 78.8292 78.8284C77.2671 80.3905 74.7344 80.3905 73.1723 78.8284Z" fill="#F4B542" stroke="#DC8433" stroke-width="2"/>
</svg>
