<svg width="290" height="289" viewBox="0 0 290 289" fill="none" xmlns="http://www.w3.org/2000/svg">
<path d="M249.548 48.6724C249.548 48.6724 210.704 60.4525 165.825 97.6528C141.195 118.055 118.708 153.119 95.486 189.256C29.9378 291.281 -13.6845 260.414 -13.6845 260.414C-13.6845 260.414 19.035 262.843 57.6315 218.952C96.2286 175.059 125.796 116.498 159.556 87.9956C193.316 59.4987 249.548 48.6724 249.548 48.6724Z" fill="#468030"/>
<path d="M21.6999 273.203C21.3722 274.503 20.0128 275.301 18.6752 274.98C17.3317 274.664 16.5052 273.353 16.8363 272.051C17.1671 270.752 18.5213 269.954 19.8616 270.269C21.2063 270.591 22.0245 271.903 21.6999 273.203Z" fill="#57C6B2"/>
<path d="M19.7969 241.994C19.4744 243.294 18.1171 244.089 16.7773 243.771C15.4349 243.455 14.6102 242.147 14.9385 240.842C15.2661 239.542 16.6203 238.744 17.9638 239.06C19.3036 239.381 20.1304 240.689 19.7969 241.994Z" fill="#57C6B2"/>
<path d="M4.02649 271.141C3.76146 272.197 2.65874 272.846 1.5696 272.589C0.478861 272.333 -0.189331 271.265 0.0759593 270.209C0.346832 269.147 1.44657 268.505 2.53779 268.762C3.62798 269.02 4.29494 270.083 4.02649 271.141Z" fill="#57C6B2"/>
<path d="M43.5462 265.945C43.0872 267.765 41.1933 268.88 39.3078 268.438C37.4357 267.992 36.284 266.157 36.7401 264.334C37.2008 262.514 39.1008 261.4 40.9726 261.845C42.8534 262.287 44.0054 264.122 43.5462 265.945Z" fill="#57C6B2"/>
<path d="M37.3902 229.583C36.9338 231.408 35.0363 232.518 33.1536 232.076C31.2763 231.633 30.1237 229.803 30.5856 227.975C31.0463 226.155 32.9413 225.04 34.8187 225.484C36.6982 225.925 37.8527 227.766 37.3902 229.583Z" fill="#57C6B2"/>
<path d="M63.2918 252.422C62.766 254.503 60.5981 255.775 58.4515 255.268C56.3003 254.759 54.9864 252.66 55.5105 250.581C56.036 248.502 58.2027 247.223 60.3545 247.73C62.496 248.241 63.8193 250.34 63.2918 252.422Z" fill="#57C6B2"/>
<path d="M54.318 210.514C53.7933 212.598 51.6261 213.87 49.4809 213.364C47.332 212.86 46.0149 210.761 46.541 208.677C47.0688 206.593 49.2318 205.321 51.3765 205.832C53.5285 206.337 54.8452 208.438 54.318 210.514Z" fill="#57C6B2"/>
<path d="M71.7712 190.385C71.1478 192.86 68.5717 194.374 66.022 193.77C63.4785 193.166 61.907 190.676 62.5329 188.204C63.157 185.732 65.7311 184.218 68.2842 184.82C70.8277 185.423 72.3957 187.916 71.7712 190.385Z" fill="#57C6B2"/>
<path d="M176.252 125.675C184.057 121.769 192.093 117.686 200.869 115.677C206.402 114.413 226.936 115.712 243.166 135.226C244.285 136.572 246.201 140.335 244.291 143.135C243.261 144.644 238.679 143.822 236.612 143.084C230.209 140.809 219.022 134.363 187.672 136.549C154.032 138.898 135.84 149.221 132.257 149.379C130.117 148.719 130.011 147.38 130.705 146.143C131.634 144.49 152.775 120.838 157.484 118.759C162.335 115.1 182.106 112.065 177.382 123.627L176.252 125.675Z" fill="#E4212B"/>
<path d="M114.105 98.9365C115.399 90.9269 116.788 82.659 116.018 74.3796C115.536 69.1561 108.141 51.5719 85.0482 43.241C83.4516 42.6644 79.3674 42.1247 77.3301 44.6416C76.23 45.9896 78.3814 49.7562 79.6828 51.3444C83.7404 56.2664 93.1203 64.1129 100.521 92.2132C108.453 122.362 104.3 141.396 105.229 144.583C106.491 146.254 107.776 145.939 108.715 144.97C109.978 143.653 125.683 118.031 126.209 113.283C128.163 107.933 125.036 89.7161 115.681 97.3285L114.105 98.9365Z" fill="#F59014"/>
<path d="M147.245 68.2582C149.666 61.9737 152.202 55.5022 153 48.6638C153.497 44.3534 150.517 28.9186 133.23 18.4531C132.035 17.7337 128.82 16.6369 126.734 18.3502C125.613 19.2687 126.712 22.6717 127.5 24.1627C129.943 28.8029 136.198 36.6702 137.383 60.6277C138.659 86.3348 132.031 101.09 132.242 103.823C132.973 105.379 134.07 105.331 135.003 104.696C136.251 103.832 153.353 85.5914 154.596 81.8257C157.093 77.8062 157.683 62.5401 148.795 67.2077L147.245 68.2582Z" fill="#B72F9E"/>
<path d="M180.272 42.3392C182.239 37.1103 184.31 31.7366 184.932 26.0634C185.321 22.4831 182.759 9.70392 168.373 1.12726C167.371 0.53143 164.703 -0.354601 162.983 1.07388C162.057 1.84739 162.987 4.65367 163.651 5.89066C165.704 9.72568 170.936 16.2093 172.054 36.0658C173.256 57.3668 167.852 69.6413 168.041 71.9008C168.659 73.1863 169.563 73.1473 170.333 72.6124C171.365 71.8889 185.441 56.6706 186.444 53.5439C188.497 50.1998 188.889 37.5396 181.551 41.4586L180.272 42.3392Z" fill="#839C27"/>
<path d="M208.416 40.7718C211.223 36.9652 214.145 33.0562 215.964 28.594C217.109 25.7822 217.996 14.865 208.33 4.78171C207.663 4.08441 205.701 2.78447 203.979 3.56552C203.05 3.98815 203.152 6.46836 203.399 7.60838C204.177 11.1681 206.911 17.5622 203.215 33.9027C199.242 51.4231 192.019 60.1928 191.645 62.063C191.847 63.2467 192.592 63.4051 193.345 63.1422C194.342 62.7782 209.275 53.5128 210.814 51.192C213.251 48.9337 216.512 38.7576 209.654 40.3368L208.416 40.7718Z" fill="#57C6B2"/>
<path d="M217.243 93.928C225.164 92.1019 233.319 90.1634 241.661 90.2614C246.925 90.3163 265.072 95.9125 275.165 116.955C275.858 118.405 276.711 122.198 274.35 124.3C273.084 125.436 269.155 123.708 267.464 122.602C262.238 119.174 253.674 110.966 225.004 106.167C194.247 101.01 175.529 106.356 172.27 105.73C170.501 104.671 170.708 103.448 171.619 102.486C172.84 101.2 197.269 84.5113 201.975 83.6582C207.18 81.4168 225.633 82.9631 218.73 92.3257L217.243 93.928Z" fill="#4BB8E3"/>
<path d="M245.309 56.17C244.211 60.2123 244.719 74.0278 249.305 77.5751C251.336 77.6159 257.237 66.9436 257.797 58.5977C259.545 63.3537 269.43 73.8677 274.915 73.7191C275.951 60.0242 268.378 55.0879 263.496 49.8247C269.217 51.0555 277.543 54.2886 285.362 50.65C284.416 44.4571 272.886 40.154 265.069 38.952C276.854 31.4498 280.832 21.1219 278.231 19.5884C275.838 17.8908 261.496 25.3124 256.669 34.8128C257.911 24.963 257.789 13.9632 250.828 8.549C244.614 12.7164 247.253 29.8511 249.01 35.414C243.879 31.8146 228.796 27.6033 225.969 31.4843C225.594 37.8984 236.509 44.2781 244.533 43.7169C233.643 48.2725 226.078 57.67 227.005 60.8188C233.404 63.1216 239.296 59.2797 245.309 56.17Z" fill="#ED2071"/>
<path d="M252.985 39.4366C258.268 36.5307 261.982 43.224 257.138 46.6973C251.549 50.7081 247.525 42.438 252.985 39.4366Z" fill="#FAD51B"/>
</svg>
