<svg width="229" height="182" viewBox="0 0 229 182" fill="none" xmlns="http://www.w3.org/2000/svg">
<path d="M175.883 102.985C186.256 106.706 192.942 109.355 204.193 115.298C209.697 118.198 222.44 126.145 233.137 131.22C231.281 127.222 218.729 117.471 220.64 118.739C215.093 114.016 204.176 108.301 199.017 106.15C192.724 102.835 174.31 97.5791 174.31 97.5791C174.31 97.5791 169.996 92.8218 168.578 89.1274C175.545 84.9567 176.066 76.4686 174.172 67.5392C172.2 58.2781 168.083 48.0823 160.531 44.9671C160.588 50.3273 162.937 53.1787 162.37 58.5929C161.856 63.4844 160.133 67.2408 158.396 71.9944C156.576 76.993 155.457 84.228 161.153 88.2852C162.727 89.4022 166.149 89.8647 166.149 89.8647C166.149 89.8647 168.031 92.7235 170.481 95.917C164.924 94.8321 160.266 94.8645 154.436 94.5531C151.122 94.3866 147.165 95.1132 144.09 93.8351C140.164 92.1983 135.427 87.9236 134.701 83.3781C144.424 76.5517 144.306 61.7449 142.444 50.3392C141.264 43.0783 139.731 38.0333 136.984 31.6272C135.337 27.7991 133.396 22.2586 130.587 20.776C131.938 28.8923 132.008 33.2842 127.904 42.9128C124.788 50.2203 121.872 53.5561 119.781 61.4011C118.027 67.9747 116.894 77.2919 125.224 82.7313C128.241 84.7028 129.741 83.4971 131.972 82.6681C132.338 89.2596 138.538 93.8589 141.087 95.428C135.297 95.5338 115.738 95.7547 97.5272 102.75C88.5167 106.207 72.0157 113.93 72.979 115.669C74.1815 117.838 91.7434 108.653 98.3581 106.542C116.162 100.345 138.061 98.906 153.696 99.5002C159.893 99.7307 165.833 99.7967 171.966 101.574C169.452 104.18 165.33 107.584 165.051 113.346C162.185 114.737 152.23 119.006 153.847 128.688C154.489 132.531 153.777 136.371 155.182 141.455C156.665 146.815 160.295 153.403 162.305 156.848C166.622 151.932 168.254 146.807 170.303 142.042C172.332 137.325 174.916 133.968 175.475 128.316C176.156 121.503 170.803 116.113 168.267 113.172C169.935 108.312 173.212 105.442 175.883 102.985Z" fill="#468030"/>
<path d="M65.9925 121.683C62.1377 129.806 56.6251 139.684 54.5235 148.509C53.2749 153.786 55.4274 178.951 61.3288 179.184C68.6195 179.471 72.7267 156.3 72.9064 151.853C73.5841 135.363 70.6703 126.811 69.8101 122.085C67.7542 122.705 65.9925 121.683 65.9925 121.683Z" fill="#FAD51B"/>
<path d="M70.7794 114.027C71.436 105.062 73.0063 93.8463 71.776 84.8549C71.0391 79.4847 59.9314 56.7858 54.3539 58.7111C47.4531 61.0846 52.0033 84.1823 53.4327 88.3916C58.7596 104.017 64.5619 110.939 67.0778 115.041C68.7683 113.714 70.7794 114.027 70.7794 114.027Z" fill="#F253A1"/>
<path d="M66.9854 115.325C61.2631 104.943 43.0221 89.4458 34.2605 84.5736C27.0575 80.5705 12.3632 80.5409 10.5808 83.4023C7.95371 87.6198 23.0116 100.914 25.5102 102.789C32.6504 108.147 57.6057 114.49 65.5965 117.411L66.9854 115.325Z" fill="#991A84"/>
<path d="M65.1298 117.489C54.1569 113.086 30.5564 112.402 20.8863 114.027C12.9331 115.356 1.97303 124.245 2.5047 127.496C3.27624 132.288 23.0765 133.229 26.1537 133.136C34.9398 132.863 57.6114 122.542 65.442 119.909L65.1298 117.489Z" fill="#57C6B2"/>
<path d="M65.3974 120.363C53.8745 122.956 34.0541 135.786 27.0098 142.608C21.2151 148.218 17.2212 161.764 19.4927 164.143C22.8367 167.655 39.6799 157.201 42.1586 155.376C49.2382 150.177 62.0662 128.792 67.022 122.184L65.3974 120.363Z" fill="#641F61"/>
<path d="M70.134 122.16C70.0941 133.99 78.1782 156.212 83.2509 164.624C87.4234 171.534 99.7187 178.477 102.545 176.794C106.708 174.314 100.273 155.532 99.0512 152.706C95.5567 144.627 77.6011 127.305 72.2646 120.983L70.134 122.16Z" fill="#ED2071"/>
<path d="M71.3595 120.84C77.8252 130.753 96.7751 144.886 105.629 149.128C112.9 152.606 126.977 151.643 128.411 148.681C130.523 144.319 114.848 132.159 112.267 130.467C104.921 125.639 80.418 121.042 72.4986 118.687L71.3595 120.84Z" fill="#F2552C"/>
<path d="M73.1432 118.079C83.5734 123.643 106.967 126.887 116.755 126.328C124.807 125.871 136.661 118.229 136.496 114.941C136.243 110.098 116.657 107.004 113.591 106.767C104.832 106.073 81.1688 113.87 73.0982 115.639L73.1432 118.079Z" fill="#B72F9E"/>
<path d="M72.6906 115.522C83.4954 110.739 100.457 94.3147 106.046 86.254C110.644 79.6271 111.947 65.5603 109.261 63.6614C105.301 60.8698 90.8011 74.3875 88.7201 76.6518C82.7869 83.1368 74.3285 106.6 70.7476 114.046L72.6906 115.522Z" fill="#EF3B3B"/>
<path d="M65.9049 116.659C63.1996 121.18 68.8478 124.519 71.7424 120.578C75.1586 115.941 69.2834 111.013 65.9049 116.659Z" fill="#F8AB1C"/>
<path d="M226.562 102.205C227.687 104.418 230.388 105.297 232.596 104.177C234.807 103.051 235.685 100.348 234.563 98.1369C233.439 95.9266 230.737 95.0377 228.524 96.1604C226.324 97.2851 225.436 99.9923 226.562 102.205Z" fill="#57C6B2"/>
<path d="M225.256 52.6377C226.38 54.8541 229.081 55.7341 231.286 54.6138C233.497 53.495 234.378 50.7902 233.252 48.5743C232.125 46.3592 229.429 45.4776 227.225 46.6034C225.011 47.7234 224.131 50.431 225.256 52.6377Z" fill="#57C6B2"/>
<path d="M200.969 88.883C202.301 91.5098 205.51 92.5586 208.135 91.2258C210.751 89.8965 211.799 86.6844 210.47 84.0567C209.132 81.4287 205.925 80.3795 203.304 81.714C200.685 83.0444 199.638 86.256 200.969 88.883Z" fill="#57C6B2"/>
<path d="M200.89 34.401C202.225 37.033 205.435 38.081 208.057 36.7466C210.671 35.4145 211.726 32.2033 210.389 29.5752C209.054 26.9464 205.845 25.8976 203.22 27.2304C200.605 28.5625 199.555 31.7753 200.89 34.401Z" fill="#57C6B2"/>
<path d="M179.143 70.8514C180.481 73.4822 183.687 74.5259 186.305 73.1955C188.932 71.8654 189.975 68.6522 188.64 66.0233C187.312 63.3948 184.095 62.346 181.475 63.6737C178.854 65.0082 177.809 68.2189 179.143 70.8514Z" fill="#57C6B2"/>
<path d="M91.8946 41.0765C87.8604 44.5209 81.7959 44.0366 78.3513 39.991C74.9071 35.9422 75.3824 29.8726 79.4177 26.4278C83.4562 22.9851 89.5189 23.4701 92.9621 27.5162C96.4076 31.5645 95.9321 37.631 91.8946 41.0765Z" fill="#4BB8E3"/>
<path d="M58.7632 37.7344C55.938 40.146 51.6911 39.8094 49.2786 36.9745C46.8743 34.1461 47.206 29.8921 50.0313 27.4806C52.8576 25.0718 57.1031 25.4151 59.5093 28.2429C61.9222 31.0745 61.5871 35.3234 58.7632 37.7344Z" fill="#4BB8E3"/>
<path d="M31.8108 44.6152C29.6924 46.4237 26.5051 46.1618 24.7005 44.048C22.892 41.92 23.1422 38.7306 25.2617 36.9249C27.3815 35.1159 30.5643 35.3699 32.3699 37.4959C34.1838 39.6189 33.9273 42.8074 31.8108 44.6152Z" fill="#4BB8E3"/>
</svg>
