<svg width="176" height="133" viewBox="0 0 176 133" fill="none" xmlns="http://www.w3.org/2000/svg">
<path d="M96.3012 126.877C97.4656 127.623 99.014 127.275 99.7516 126.109C100.493 124.943 100.149 123.396 98.9774 122.651C97.8096 121.909 96.2614 122.253 95.5196 123.42C94.7839 124.588 95.126 126.136 96.3012 126.877Z" fill="#57C6B2"/>
<path d="M114.525 120.33C115.475 120.931 116.731 120.656 117.333 119.702C117.934 118.755 117.653 117.5 116.702 116.896C115.753 116.294 114.493 116.574 113.891 117.52C113.294 118.467 113.575 119.729 114.525 120.33Z" fill="#57C6B2"/>
<path d="M74.7246 129.824C76.362 130.868 78.5251 130.38 79.5654 128.746C80.6005 127.114 80.1193 124.951 78.4765 123.909C76.8399 122.872 74.6747 123.354 73.6396 124.986C72.6013 126.618 73.0887 128.79 74.7246 129.824Z" fill="#57C6B2"/>
<path d="M48.8545 127.345C50.7265 128.534 53.2004 127.98 54.3837 126.116C55.5711 124.251 55.0157 121.773 53.1429 120.584C51.2688 119.397 48.7976 119.948 47.6184 121.816C46.4289 123.684 46.9863 126.163 48.8545 127.345Z" fill="#57C6B2"/>
<path d="M21.8457 124.439C24.069 125.851 27.0109 125.194 28.4155 122.976C29.816 120.763 29.1636 117.818 26.9404 116.409C24.7184 114.999 21.7779 115.655 20.3693 117.873C18.9688 120.086 19.6252 123.031 21.8457 124.439Z" fill="#57C6B2"/>
<path d="M104.923 61.0258C101.091 61.978 82.9048 68.2492 83.2494 68.2825C83.5933 68.3084 77.4361 63.4849 71.5816 64.134C66.8639 64.6517 63.6888 66.8841 62.519 70.1207C61.1586 70.6498 54.517 69.822 51.8429 71.0051C49.2502 72.1516 45.3741 75.1103 44.7505 77.8156C30.6742 77.7555 16.4375 96.1111 1.13317 92.4448C4.72159 98.5838 23.3284 94.9984 29.3194 93.2865C38.1314 90.7746 43.6344 89.0869 52.1143 85.6202C60.4521 82.2055 66.9905 76.0634 76.1953 73.2752C80.5412 71.962 82.6237 71.2168 86.4519 70.2687C90.0193 69.3839 107.223 63.8045 107.355 63.1674C107.355 63.1674 108.749 60.076 104.923 61.0258Z" fill="#468030"/>
<path d="M0.591319 92.2768C6.55968 102.157 17.9107 100.26 26.7138 99.4235C31.3524 98.9848 32.1727 99.3051 36.3444 97.3369C40.4223 95.4201 41.3898 94.5576 43.861 94.6659C44.7896 94.7031 49.8409 97.5115 55.2146 96.227C56.7998 95.843 58.5667 95.6392 60.7165 94.582C63.4197 93.2568 65.5947 90.7231 68.2269 89.8956C70.1419 89.2989 72.9799 90.5754 75.5758 89.4662C83.3836 86.1306 87.3121 80.4596 86.7987 73.0124C86.7748 72.7404 85.9851 70.9577 85.5384 70.8704C74.3796 71.6738 55.7069 84.3653 48.7999 87.129C7.09537 103.863 0.591319 92.2768 0.591319 92.2768Z" fill="#8AC427"/>
<path d="M136.567 61.6943C141.272 64.5336 153.463 78.0123 152.528 85.4109C150.711 87.2451 135.555 82.4109 127.405 75.0395C130.167 81.075 130.781 99.744 125.642 104.453C112.171 92.4564 114.541 81.097 114.173 71.8139C110.083 78.0391 105.457 88.4566 95.003 91.9572C90.1871 85.2764 96.7642 71.0125 102.788 62.9536C85.1699 66.3182 72.0884 60.1016 73.0586 56.352C73.6886 52.6338 93.5503 46.9329 106.659 51.6175C96.5023 43.4248 86.5406 32.9496 87.9296 21.6868C97.4142 20.1061 110.699 38.598 114.19 45.4015C115.576 37.4593 125.465 20.1389 131.596 21.294C137.812 27.0112 133.704 42.6949 125.874 49.2631C139.973 43.9156 155.473 46.0803 157.508 49.8665C153.79 57.7061 144.897 59.3029 136.567 61.6943Z" fill="#ED2071"/>
<path d="M114.246 52.7142C106.771 54.6552 109.519 64.2511 117.106 63.2379C125.881 62.0643 121.972 50.7089 114.246 52.7142Z" fill="#FAD51B"/>
</svg>
