<svg width="1512" height="164" viewBox="0 0 1512 164" fill="none" xmlns="http://www.w3.org/2000/svg">
<path d="M309.725 38.854C308.809 35.6151 305.313 29.997 299.618 27.0499C297.435 18.5662 296.01 14.9013 292.068 11.7833C283.702 5.17669 279.261 3.60458 269.181 2.21385C258.618 0.749504 246.863 1.72228 235.448 3.38906C225.916 4.77979 211.836 7.13 202.661 2.4951C204.155 15.7057 236.773 30.0574 249.139 35.0157C258.988 38.9513 271.336 43.3417 281.799 42.1455C295.246 40.5944 294.191 35.6335 297.5 32.2001C301.251 32.6759 304.363 34.4478 305.523 39.4035L309.725 38.854" fill="#315C28"/>
<path d="M337.711 38.854C338.632 35.6151 342.122 29.997 347.822 27.0499C350.006 18.5662 351.431 14.9013 355.367 11.7833C363.736 5.17669 368.174 3.60458 378.254 2.21385C388.82 0.749504 400.577 1.72228 411.99 3.38906C421.525 4.77979 435.604 7.13 444.776 2.4951C443.291 15.7057 410.673 30.0574 398.294 35.0157C388.447 38.9513 376.102 43.3417 365.639 42.1455C352.194 40.5944 353.247 35.6335 349.94 32.2001C346.185 32.6759 343.072 34.4478 341.915 39.4035L337.711 38.854" fill="#315C28"/>
<path d="M345.778 42.5744C345.778 42.5744 375.491 81.7095 385.821 96.8156C396.153 111.922 429.621 122.448 429.621 122.448C429.621 122.448 426.023 154.829 387.101 145.688C387.101 145.688 358.572 89.5175 337.218 49.4571C337.218 49.4571 341.697 47.0779 345.778 42.5744" fill="#641F61"/>
<path d="M327.048 52.3435C327.048 52.3435 334.147 52.3435 337.217 49.4569L385.311 142.781C385.311 142.781 386.972 151.28 371.751 152.992C356.53 154.711 347.499 155.158 345.379 149.579C343.271 144.006 346.785 102.633 327.048 52.3435Z" fill="#B72F9E"/>
<path d="M304.066 40.9645C304.066 40.9645 273.251 79.2373 262.499 94.0464C251.742 108.855 217.985 118.422 217.985 118.422C217.985 118.422 220.672 150.885 259.833 142.859C259.833 142.859 289.942 87.5265 312.425 48.0891C312.425 48.0891 308.008 45.5837 304.066 40.9645" fill="#ED2071"/>
<path d="M322.508 51.2685C322.508 51.2685 315.409 51.066 312.425 48.09L261.699 140.01C261.699 140.01 259.804 148.459 274.965 150.605C290.136 152.75 299.154 153.452 301.424 147.942C303.696 142.429 301.345 100.972 322.508 51.2685" fill="#F253A1"/>
<path d="M325.626 52.3539C325.626 52.3539 341.409 73.8117 344.298 139.804C346.524 171.581 299.716 169.412 302.143 144.863C303.466 131.563 305.476 89.6277 322.508 51.2682L325.626 52.3539" fill="#991A84"/>
<path d="M345.778 42.5735C345.778 42.5735 340.883 29.1394 325.541 28.5032C310.199 27.8723 304.066 40.9646 304.066 40.9646C304.066 40.9646 307.688 52.795 327.048 52.3428C343.067 51.9695 345.778 42.5735 345.778 42.5735" fill="#284088"/>
<path d="M305.009 40.2002C293.401 43.0474 280.082 51.8466 276.786 55.5745C277.573 62.3257 277.573 65.3859 275.595 68.7484C271.388 75.8808 268.614 78.2679 261.709 82.0984C254.471 86.126 245.69 88.7234 236.962 90.7214C229.676 92.3908 218.827 94.6465 213.482 100.58C210.862 90.5952 230.456 71.054 238.027 63.9899C244.047 58.3718 251.758 51.7257 259.662 49.6619C269.829 46.9988 270.456 50.8871 273.815 52.4487C276.393 51.0501 290.317 39.727 307.373 36.4013L305.009 40.2002" fill="#315C28"/>
<path d="M344.03 40.2002C355.638 43.0474 368.951 51.8466 372.252 55.5745C371.457 62.3257 371.462 65.3859 373.439 68.7484C377.648 75.8808 380.417 78.2679 387.324 82.0984C394.562 86.126 403.34 88.7234 412.069 90.7214C419.36 92.3908 430.211 94.6465 435.552 100.58C438.168 90.5952 418.578 71.054 411.004 63.9899C404.983 58.3718 397.278 51.7257 389.371 49.6619C379.202 46.9988 378.577 50.8871 375.221 52.4487C372.643 51.0501 358.719 39.727 341.663 36.4013L344.03 40.2002" fill="#315C28"/>
<path d="M23.1112 42.7975C30.7113 36.5536 35.5296 32.3183 43.2058 23.9423C46.956 19.8516 55.2831 9.34357 62.7441 1.86411C62.3872 5.7813 54.7661 17.7485 55.9917 16.108C52.7532 21.7445 45.2922 29.8287 41.5998 33.1859C37.3063 37.8628 23.413 47.8135 23.413 47.8135C23.413 47.8135 21.2138 53.1083 21.1377 56.639C28.2497 58.0508 31.2283 65.0281 32.3227 73.1017C33.4511 81.4776 33.0496 91.2838 27.6408 96.171C26.0793 91.6492 27.1946 88.547 25.0899 84.1671C23.1899 80.2105 20.6102 77.571 17.7287 74.0981C14.6923 70.4438 11.5798 64.6995 15.1463 59.5782C16.1357 58.1665 18.8755 56.7494 18.8755 56.7494C18.8755 56.7494 19.5971 53.7813 20.6968 50.361C16.3456 52.9426 12.4275 54.315 7.61701 56.3288C4.88244 57.4645 1.33955 58.0429 -0.857034 60.0409C-3.67034 62.5963 -6.36296 67.6124 -5.60977 71.6506C4.61209 74.4662 8.96856 86.9459 10.8318 97.0912C12.0128 103.548 12.2437 108.249 11.8553 114.458C11.6296 118.17 11.6585 123.41 9.74796 125.5C8.44103 118.273 7.17872 114.561 0.835661 107.702C-3.9774 102.496 -7.42841 100.569 -11.546 94.6042C-14.9944 89.6065 -18.742 82.1165 -13.3804 75.0419C-11.4358 72.4787 -9.80871 73.0413 -7.68824 73.0675C-9.3652 67.4179 -5.53625 61.6893 -3.86716 59.6045C-8.76158 61.2555 -25.2635 66.9473 -42.6683 66.5398C-51.2866 66.3426 -67.471 64.8099 -67.1902 63.059C-66.828 60.8743 -49.3079 63.3167 -43.1144 63.1037C-26.2923 62.9618 -7.45203 57.5907 5.50965 52.3932C10.6455 50.3374 15.6186 48.4971 20.2427 45.1609C17.3455 43.7255 12.8552 42.1033 10.8922 37.3449C8.0684 37.0373 -1.58658 36.4406 -3.13233 27.8175C-3.74643 24.3946 -5.49952 21.3817 -5.84856 16.6863C-6.21335 11.7359 -5.14262 5.10835 -4.48654 1.60917C0.620456 4.44322 3.53613 8.26049 6.68798 11.6492C9.80571 15.0038 12.9838 17.0491 15.1568 21.6314C17.7706 27.1523 14.897 33.291 13.6504 36.5247C16.5109 40.108 20.1273 41.5355 23.1112 42.7975" fill="#468030"/>
<path d="M104.841 2.1873C105.02 0.81497 106.274 -0.157687 107.644 0.0210836C109.014 0.194597 109.985 1.44854 109.809 2.82349C109.638 4.19582 108.381 5.16862 107.014 4.9951C105.644 4.81633 104.673 3.55963 104.841 2.1873" fill="#57C6B2"/>
<path d="M110.368 34.0423C110.544 32.67 111.796 31.6999 113.166 31.8761C114.538 32.0496 115.507 33.301 115.333 34.6785C115.155 36.0509 113.901 37.0236 112.536 36.8501C111.163 36.6713 110.192 35.4199 110.368 34.0423Z" fill="#57C6B2"/>
<path d="M122.645 2.31615C122.784 1.20146 123.805 0.410148 124.917 0.552114C126.03 0.69145 126.82 1.71404 126.678 2.82873C126.539 3.9513 125.518 4.73473 124.406 4.59277C123.293 4.4508 122.5 3.43347 122.645 2.31615Z" fill="#57C6B2"/>
<path d="M127.041 24.1894C127.182 23.0747 128.201 22.2835 129.313 22.428C130.426 22.57 131.216 23.5873 131.074 24.7047C130.933 25.8194 129.917 26.6107 128.802 26.4714C127.689 26.3268 126.899 25.3041 127.041 24.1894Z" fill="#57C6B2"/>
<path d="M83.9829 12.1062C84.2296 10.1844 85.9826 8.8252 87.901 9.06706C89.8194 9.31419 91.1762 11.0703 90.9295 12.9948C90.6881 14.9165 88.9351 16.2757 87.014 16.0286C85.1009 15.7867 83.7388 14.0306 83.9829 12.1062" fill="#57C6B2"/>
<path d="M94.3304 48.7757C94.5797 46.8487 96.3328 45.4947 98.2485 45.7366C100.167 45.9811 101.526 47.732 101.28 49.6616C101.038 51.5834 99.2826 52.9426 97.3642 52.6981C95.4458 52.4563 94.089 50.6949 94.3304 48.7757Z" fill="#57C6B2"/>
<path d="M65.9405 28.2245C66.2187 26.0267 68.2237 24.4757 70.415 24.7543C72.609 25.0356 74.16 27.0441 73.8818 29.2393C73.6036 31.4345 71.5986 32.9935 69.4073 32.7148C67.2107 32.4309 65.6597 30.4223 65.9405 28.2245" fill="#57C6B2"/>
<path d="M79.7338 70.2757C80.0093 68.0753 82.017 66.5242 84.2109 66.8029C86.4049 67.0789 87.9559 69.0875 87.6777 71.2879C87.3969 73.4884 85.3919 75.0395 83.2006 74.7555C81.0066 74.4795 79.453 72.4683 79.7338 70.2757Z" fill="#57C6B2"/>
<path d="M48.4335 47.1114C48.7589 44.5035 51.1471 42.6579 53.7478 42.9892C56.3538 43.3204 58.1987 45.7049 57.8654 48.3129C57.5321 50.9234 55.1492 52.769 52.5484 52.4351C49.9425 52.1038 48.1002 49.7194 48.4335 47.1114Z" fill="#57C6B2"/>
<path d="M64.7361 92.9243C65.0694 90.3111 67.4523 88.4655 70.053 88.7994C72.6564 89.1333 74.5013 91.5152 74.1706 94.1257C73.8426 96.7363 71.4571 98.5819 68.8537 98.2506C66.2503 97.9167 64.4054 95.5322 64.7361 92.9243Z" fill="#57C6B2"/>
<path d="M35.5059 68.824C35.8392 66.2108 38.2222 64.3704 40.8229 64.7017C43.4263 65.0303 45.2764 67.4174 44.9431 70.028C44.6098 72.636 42.2295 74.4841 39.6235 74.1555C37.0176 73.8216 35.1727 71.4372 35.5059 68.824Z" fill="#57C6B2"/>
<path d="M166.571 69.4261C163.399 71.7685 146.96 81.7692 147.156 81.4826C147.353 81.2013 147.141 89.0199 142.908 93.1132C139.493 96.4152 135.751 97.4353 132.51 96.2706C131.242 96.9805 127.637 102.622 125.023 103.926C122.485 105.191 117.73 106.287 115.247 105.041C106.314 115.917 83.0986 115.165 76.152 129.288C73.7218 122.608 88.35 110.57 93.4885 107.049C101.049 101.868 105.857 98.7077 113.94 94.3909C121.892 90.1504 130.788 89.0357 138.811 83.7278C142.595 81.2197 144.498 80.0919 147.673 77.7495C150.626 75.5674 165.9 65.8822 166.477 66.1872C166.477 66.1872 169.744 67.0863 166.571 69.4261Z" fill="#468030"/>
<path d="M75.9365 129.812C72.1338 118.912 80.8388 111.382 87.1032 105.138C90.3994 101.847 90.6775 101.011 94.8555 99.055C98.9285 97.1385 100.217 96.944 101.705 94.9722C102.272 94.2335 103.335 88.5522 107.749 85.2344C109.058 84.2591 110.342 83.0287 112.528 82.0481C115.273 80.8125 118.611 80.7547 120.928 79.2561C122.611 78.1625 123.435 75.1628 125.949 73.872C133.499 69.989 140.37 70.5831 145.776 75.7306C145.973 75.9225 146.841 77.6682 146.626 78.0678C138.884 86.1467 117.194 92.4247 110.659 95.9791C71.1655 117.411 75.9365 129.812 75.9365 129.812" fill="#8AC427"/>
<path d="M186.257 44.635C187.067 39.2009 184.469 21.2133 178.171 17.212C175.602 17.4407 169.657 32.1947 170.133 43.1733C167.246 37.195 153.268 24.8098 146.356 25.7615C146.994 43.7884 157.257 49.212 164.17 55.4191C156.767 54.5962 145.797 51.5098 136.425 57.3251C138.501 65.2962 153.675 69.3343 163.724 69.8391C149.893 81.2568 146.335 95.2956 149.836 96.9413C153.1 98.8289 170.169 87.1746 174.922 74.0928C174.751 87.1404 176.457 101.495 186.023 107.612C193.287 101.319 187.527 79.2903 184.511 72.2604C191.508 76.2617 211.167 79.7004 214.187 74.2426C213.752 65.8088 199.053 58.963 188.999 60.8007C202.115 53.358 210.34 40.0422 208.721 36.0593C200.315 33.9193 193.408 39.7478 186.257 44.635" fill="#ED2071"/>
<path d="M178.924 67.5516C172.662 72.0682 167.023 63.829 172.649 58.6341C179.144 52.6269 185.396 62.8825 178.924 67.5516Z" fill="#FAD51B"/>
<path d="M169.857 131.207C172.111 135.382 177.308 136.935 181.478 134.677C185.643 132.422 187.194 127.213 184.942 123.039C182.688 118.866 177.486 117.315 173.321 119.571C169.156 121.829 167.605 127.037 169.857 131.207Z" fill="#4BB8E3"/>
<path d="M135.378 125.053C138.163 130.217 144.592 132.138 149.744 129.346C154.893 126.557 156.814 120.111 154.027 114.95C151.245 109.797 144.813 107.87 139.661 110.66C134.51 113.452 132.594 119.898 135.378 125.053" fill="#4BB8E3"/>
<path d="M198.499 139.129C200.074 142.047 203.714 143.135 206.632 141.561C209.545 139.978 210.637 136.329 209.054 133.408C207.482 130.495 203.84 129.404 200.921 130.982C198.008 132.562 196.922 136.208 198.499 139.129" fill="#4BB8E3"/>
<path d="M623.443 42.7975C615.844 36.5536 611.021 32.3183 603.351 23.9423C599.597 19.8516 591.274 9.34357 583.809 1.86411C584.168 5.7813 591.787 17.7485 590.562 16.108C593.805 21.7445 601.262 29.8287 604.952 33.1859C609.245 37.8628 623.141 47.8135 623.141 47.8135C623.141 47.8135 625.338 53.1083 625.419 56.639C618.31 58.0508 615.322 65.0281 614.23 73.1017C613.105 81.4776 613.501 91.2838 618.912 96.171C620.475 91.6492 619.358 88.547 621.462 84.1671C623.363 80.2105 625.94 77.571 628.828 74.0981C631.86 70.4438 634.974 64.6995 631.407 59.5782C630.419 58.1665 627.682 56.7494 627.682 56.7494C627.682 56.7494 626.959 53.7813 625.859 50.361C630.204 52.9426 634.128 54.315 638.935 56.3288C641.67 57.4645 645.214 58.0429 647.414 60.0409C650.222 62.5963 652.919 67.6124 652.163 71.6506C641.94 74.4662 637.59 86.9459 635.728 97.0912C634.537 103.548 634.31 108.249 634.694 114.458C634.928 118.17 634.894 123.41 636.809 125.5C638.113 118.273 639.374 114.561 645.716 107.702C650.531 102.496 653.984 100.569 658.098 94.6042C661.548 89.6065 665.3 82.1165 659.933 75.0419C657.991 72.4787 656.368 73.0413 654.243 73.0675C655.916 67.4179 652.088 61.6893 650.417 59.6045C655.315 61.2555 671.82 66.9473 689.226 66.5398C697.838 66.3426 714.027 64.8099 713.739 63.059C713.381 60.8743 695.861 63.3167 689.667 63.1037C672.842 62.9618 654.005 57.5907 641.043 52.3932C635.904 50.3374 630.932 48.4971 626.312 45.1609C629.208 43.7255 633.695 42.1033 635.661 37.3449C638.487 37.0373 648.137 36.4406 649.687 27.8175C650.302 24.3946 652.055 21.3817 652.401 16.6863C652.765 11.7359 651.694 5.10835 651.04 1.60917C645.935 4.44322 643.023 8.26049 639.869 11.6492C636.746 15.0038 633.566 17.0491 631.398 21.6314C628.779 27.1523 631.658 33.291 632.905 36.5247C630.043 40.108 626.426 41.5355 623.443 42.7975" fill="#468030"/>
<path d="M721.418 60.1035C727.099 54.4354 734.7 47.7894 739.118 41.004C741.753 36.9448 747.506 15.1479 742.616 13.1788C736.575 10.747 726.16 28.9869 724.673 32.6701C719.149 46.325 719.028 54.3881 718.331 58.6182C720.245 58.7154 721.418 60.1035 721.418 60.1035" fill="#FAD51B"/>
<path d="M715.094 65.0996C711.848 72.4371 707.158 81.3914 705.49 89.3178C704.496 94.0526 707.011 116.467 712.277 116.525C718.789 116.604 721.906 95.8245 721.969 91.8574C722.188 77.1246 719.391 69.5636 718.509 65.3598C716.69 65.9671 715.094 65.0996 715.094 65.0996" fill="#F253A1"/>
<path d="M718.674 65.1494C720.363 75.5944 731.037 94.0998 736.937 100.827C741.788 106.356 754.128 110.796 756.486 108.927C759.961 106.172 751.301 90.4745 749.764 88.1478C745.374 81.4991 726.306 68.6697 720.468 63.8139L718.674 65.1494" fill="#991A84"/>
<path d="M720.883 63.8872C728.781 70.8856 748.411 78.5517 757.026 80.0923C764.11 81.3647 775.992 77.1872 776.522 74.2953C777.313 70.0364 760.955 63.2957 758.341 62.4492C750.875 60.0384 728.72 61.8997 721.347 61.7604L720.883 63.8872Z" fill="#57C6B2"/>
<path d="M721.522 61.3921C731.985 62.675 752.498 57.8482 760.469 54.2307C767.024 51.2573 774.452 41.0727 773.257 38.3911C771.502 34.4345 754.205 38.1597 751.574 38.9484C744.061 41.1909 726.854 55.3086 720.704 59.373L721.522 61.3921Z" fill="#641F61"/>
<path d="M718.081 58.4579C721.669 48.5283 721.552 27.4228 719.817 18.8287C718.386 11.7672 710.139 2.23718 707.259 2.80241C703.014 3.6358 702.779 21.3552 702.956 24.0972C703.466 31.9368 713.351 51.8908 715.936 58.8076L718.081 58.4579Z" fill="#ED2071"/>
<path d="M716.654 59.199C714.199 48.925 702.52 31.3529 696.353 25.1274C691.287 20.0193 679.167 16.5989 677.072 18.6574C673.986 21.6886 683.506 36.6187 685.167 38.8165C689.89 45.0814 709.102 56.3072 715.05 60.666L716.654 59.199" fill="#F2552C"/>
<path d="M714.325 60.9841C707.231 53.1734 688.545 43.4173 680.151 40.946C673.247 38.9112 660.987 41.7715 660.138 44.5845C658.896 48.7304 674.427 57.2168 676.932 58.3367C684.086 61.552 706.316 62.1093 713.63 63.0479L714.325 60.9841" fill="#B72F9E"/>
<path d="M713.938 63.2687C703.42 64.0416 684.229 72.7488 677.11 77.8438C671.254 82.0318 665.932 93.4626 667.619 95.8655C670.108 99.4015 686.356 92.3978 688.786 91.1202C695.721 87.4527 709.88 70.2749 715.127 65.0932L713.938 63.2687" fill="#EF3B3B"/>
<path d="M719.983 64.3519C723.615 61.3654 719.871 56.8619 716.254 59.3042C711.99 62.1751 715.447 68.0825 719.983 64.3519Z" fill="#F8AB1C"/>
<path d="M541.709 2.1873C541.535 0.81497 540.277 -0.157687 538.911 0.0210836C537.539 0.194597 536.565 1.44854 536.743 2.82349C536.92 4.19582 538.173 5.16862 539.541 4.9951C540.915 4.81633 541.88 3.55963 541.709 2.1873Z" fill="#57C6B2"/>
<path d="M536.184 34.0423C536.015 32.67 534.759 31.6999 533.39 31.8761C532.02 32.0496 531.048 33.301 531.222 34.6785C531.396 36.0509 532.649 37.0236 534.021 36.8501C535.389 36.6713 536.363 35.4199 536.184 34.0423Z" fill="#57C6B2"/>
<path d="M523.908 2.31615C523.767 1.20146 522.747 0.410148 521.635 0.552114C520.522 0.69145 519.733 1.71404 519.874 2.82873C520.019 3.9513 521.037 4.73473 522.152 4.59277C523.265 4.4508 524.051 3.43347 523.908 2.31615Z" fill="#57C6B2"/>
<path d="M519.513 24.1894C519.369 23.0747 518.356 22.2835 517.237 22.428C516.125 22.57 515.337 23.5873 515.479 24.7047C515.621 25.8194 516.641 26.6107 517.754 26.4714C518.864 26.3268 519.656 25.3041 519.513 24.1894Z" fill="#57C6B2"/>
<path d="M562.571 12.1062C562.327 10.1844 560.575 8.8252 558.65 9.06706C556.738 9.31419 555.38 11.0703 555.62 12.9948C555.866 14.9165 557.624 16.2757 559.536 16.0286C561.456 15.7867 562.815 14.0306 562.571 12.1062" fill="#57C6B2"/>
<path d="M552.22 48.7757C551.979 46.8487 550.223 45.4947 548.301 45.7366C546.384 45.9811 545.025 47.732 545.271 49.6616C545.517 51.5834 547.27 52.9426 549.187 52.6981C551.106 52.4563 552.468 50.6949 552.22 48.7757Z" fill="#57C6B2"/>
<path d="M580.616 28.2245C580.336 26.0267 578.33 24.4757 576.139 24.7543C573.942 25.0356 572.392 27.0441 572.67 29.2393C572.95 31.4345 574.954 32.9935 577.152 32.7148C579.339 32.4309 580.898 30.4223 580.616 28.2245" fill="#57C6B2"/>
<path d="M566.82 70.2757C566.541 68.0753 564.536 66.5242 562.345 66.8029C560.151 67.0789 558.598 69.0875 558.878 71.2879C559.16 73.4884 561.161 75.0395 563.352 74.7555C565.549 74.4795 567.102 72.4683 566.82 70.2757" fill="#57C6B2"/>
<path d="M598.123 47.1114C597.793 44.5035 595.411 42.6579 592.804 42.9892C590.207 43.3204 588.36 45.7049 588.688 48.3129C589.023 50.9234 591.403 52.769 594.007 52.4351C596.608 52.1038 598.453 49.7194 598.123 47.1114Z" fill="#57C6B2"/>
<path d="M581.818 92.9243C581.486 90.3111 579.103 88.4655 576.499 88.7994C573.902 89.1333 572.05 91.5152 572.384 94.1257C572.716 96.7363 575.098 98.5819 577.705 98.2506C580.302 97.9167 582.151 95.5322 581.818 92.9243" fill="#57C6B2"/>
<path d="M611.048 68.824C610.713 66.2108 608.333 64.3704 605.732 64.7017C603.125 65.0303 601.283 67.4174 601.615 70.028C601.941 72.636 604.33 74.4841 606.931 74.1555C609.535 73.8216 611.378 71.4372 611.048 68.824Z" fill="#57C6B2"/>
<path d="M479.98 69.4261C483.158 71.7685 499.591 81.7692 499.397 81.4826C499.198 81.2013 499.413 89.0199 503.649 93.1132C507.058 96.4152 510.803 97.4353 514.041 96.2706C515.317 96.9805 518.917 102.622 521.535 103.926C524.072 105.191 528.823 106.287 531.304 105.041C540.24 115.917 563.458 115.165 570.401 129.288C572.838 122.608 558.204 110.57 553.063 107.049C545.506 101.868 540.695 98.7077 532.614 94.3909C524.664 90.1504 515.763 89.0357 507.743 83.7278C503.958 81.2197 502.056 80.0919 498.883 77.7495C495.925 75.5674 480.651 65.8822 480.077 66.1872C480.077 66.1872 476.807 67.0863 479.98 69.4261Z" fill="#468030"/>
<path d="M570.618 129.812C574.416 118.912 565.713 111.382 559.451 105.138C556.154 101.847 555.877 101.011 551.699 99.055C547.621 97.1385 546.34 96.944 544.846 94.9722C544.282 94.2335 543.221 88.5522 538.803 85.2344C537.496 84.2591 536.212 83.0287 534.026 82.0481C531.281 80.8125 527.942 80.7547 525.625 79.2561C523.944 78.1625 523.115 75.1628 520.605 73.872C513.054 69.989 506.181 70.5831 500.775 75.7306C500.581 75.9225 499.712 77.6682 499.93 78.0678C507.669 86.1467 529.356 92.4247 535.892 95.9791C575.388 117.411 570.618 129.812 570.618 129.812" fill="#8AC427"/>
<path d="M460.302 44.635C459.486 39.2009 462.084 21.2133 468.377 17.212C470.949 17.4407 476.899 32.1947 476.424 43.1733C479.308 37.195 493.29 24.8098 500.195 25.7615C499.555 43.7884 489.296 49.212 482.383 55.4191C489.787 54.5962 500.759 51.5098 510.125 57.3251C508.055 65.2962 492.876 69.3343 482.827 69.8391C496.66 81.2568 500.221 95.2956 496.715 96.9413C493.45 98.8289 476.387 87.1746 471.629 74.0928C471.802 87.1404 470.094 101.495 460.536 107.612C453.266 101.319 459.027 79.2903 462.037 72.2604C455.038 76.2617 435.392 79.7004 432.369 74.2426C432.804 65.8088 447.501 58.963 457.554 60.8007C444.441 53.358 436.216 40.0422 437.832 36.0593C446.241 33.9193 453.146 39.7478 460.302 44.635" fill="#ED2071"/>
<path d="M467.632 67.5516C473.896 72.0682 479.531 63.829 473.909 58.6341C467.406 52.6269 461.158 62.8825 467.632 67.5516Z" fill="#FAD51B"/>
<path d="M476.696 131.207C474.439 135.382 469.246 136.935 465.078 134.677C460.913 132.422 459.36 127.213 461.611 123.039C463.866 118.866 469.072 117.315 473.229 119.571C477.397 121.829 478.951 127.037 476.696 131.207Z" fill="#4BB8E3"/>
<path d="M511.181 125.053C508.391 130.217 501.959 132.138 496.807 129.346C491.661 126.557 489.74 120.111 492.529 114.95C495.314 109.797 501.743 107.87 506.895 110.66C512.044 113.452 513.965 119.898 511.181 125.053" fill="#4BB8E3"/>
<path d="M448.052 139.129C446.477 142.047 442.837 143.135 439.927 141.561C437.006 139.978 435.919 136.329 437.499 133.408C439.071 130.495 442.716 129.404 445.632 130.982C448.545 132.562 449.632 136.208 448.052 139.129" fill="#4BB8E3"/>
<path d="M427.842 153.559C426.658 155.752 423.926 156.567 421.74 155.381C419.554 154.198 418.735 151.464 419.921 149.274C421.102 147.084 423.834 146.267 426.018 147.455C428.206 148.635 429.017 151.375 427.842 153.559" fill="#4BB8E3"/>
<path d="M675.428 120.065C679.854 118.383 684.805 120.612 686.484 125.047C688.162 129.485 685.939 134.443 681.513 136.126C677.084 137.806 672.134 135.576 670.456 131.141C668.777 126.704 671 121.748 675.428 120.065" fill="#4BB8E3"/>
<path d="M702.268 132.829C705.367 131.652 708.835 133.211 710.011 136.318C711.182 139.418 709.625 142.893 706.526 144.071C703.426 145.246 699.961 143.682 698.789 140.582C697.612 137.478 699.17 134.007 702.268 132.829Z" fill="#4BB8E3"/>
<path d="M726.987 135.145C729.311 134.262 731.911 135.44 732.793 137.759C733.673 140.09 732.504 142.696 730.181 143.576C727.855 144.46 725.257 143.29 724.378 140.961C723.492 138.631 724.665 136.029 726.987 135.145" fill="#4BB8E3"/>
<path d="M1217.61 120.354C1217.61 120.354 1214.34 129.716 1208.18 132.66C1201.84 135.689 1192.24 135.063 1188.82 124.063C1185.86 114.507 1195.9 109.578 1200.66 109.189C1205.41 108.8 1222.44 111.318 1229.94 143.386C1229.94 143.386 1232.42 155.73 1232.56 159.139L1231.07 161.887C1231.07 161.887 1227.52 129.477 1217.61 120.354" fill="#F2552C"/>
<path d="M1288.08 120.354C1288.08 120.354 1291.37 129.716 1297.52 132.66C1303.86 135.689 1313.47 135.063 1316.88 124.063C1319.84 114.507 1309.8 109.578 1305.05 109.189C1300.29 108.8 1283.27 111.318 1275.77 143.386C1275.77 143.386 1273.28 155.73 1273.14 159.139L1274.62 161.887C1274.62 161.887 1278.18 129.477 1288.08 120.354" fill="#F2552C"/>
<path d="M1252.3 87.2017C1252.3 87.2017 1258.32 95.0729 1265.08 95.951C1272.05 96.8658 1280.98 93.2877 1280.82 81.7649C1280.68 71.7564 1269.6 70.2 1264.96 71.3042C1260.32 72.4137 1244.91 80.1008 1247.72 112.918C1247.72 112.918 1251.98 143.967 1252.91 147.248L1255.17 149.396C1255.17 149.396 1245.71 98.9348 1252.3 87.2017" fill="#57C6B2"/>
<path d="M962.544 113.342C962.193 104.966 961.77 96.314 963.499 87.8934C964.586 82.5802 973.984 65.3445 997.899 59.3846C999.553 58.9719 1003.68 58.8772 1005.41 61.6929C1006.34 63.2019 1003.77 66.8299 1002.29 68.3153C997.684 72.916 987.447 79.9223 976.829 107.963C965.431 138.049 967.339 158.074 966.045 161.245C964.602 162.819 963.363 162.351 962.536 161.25C961.434 159.754 948.814 131.658 948.848 126.721C947.522 121.003 952.753 102.637 961.166 111.512L962.544 113.342" fill="#F59014"/>
<path d="M1543.56 113.343C1543.91 104.967 1544.34 96.315 1542.61 87.8944C1541.52 82.5812 1532.12 65.3455 1508.21 59.3856C1506.55 58.9729 1502.43 58.8782 1500.7 61.6939C1499.76 63.2029 1502.34 66.8309 1503.82 68.3163C1508.42 72.917 1518.66 79.9232 1529.28 107.964C1540.67 138.05 1538.77 158.075 1540.06 161.246C1541.5 162.82 1542.74 162.352 1543.57 161.251C1544.67 159.755 1557.29 131.659 1557.26 126.722C1558.58 121.004 1553.35 102.638 1544.94 111.513L1543.56 113.343" fill="#F59014"/>
<path d="M933.191 78.087C931.517 71.3568 929.745 64.4215 929.753 57.3049C929.753 52.8198 934.516 37.2956 952.91 28.4885C954.183 27.8839 957.503 27.1189 959.374 29.1143C960.382 30.1843 958.894 33.5572 957.944 35.0005C954.976 39.4935 947.845 46.873 943.875 71.3568C939.618 97.6282 944.478 113.536 943.953 116.32C943.043 117.837 941.959 117.664 941.106 116.907C939.967 115.879 925.097 95.2095 924.3 91.2003C922.287 86.7889 923.481 71.0361 931.774 76.833L933.191 78.087" fill="#B72F9E"/>
<path d="M903.386 47.7353C902.038 42.1408 900.612 36.3859 900.657 30.4865C900.686 26.7638 904.714 13.9213 920.014 6.72835C921.072 6.22885 923.828 5.61888 925.368 7.2804C926.2 8.17951 924.951 10.9584 924.15 12.1545C921.665 15.864 915.708 21.937 912.28 42.2144C908.606 63.9666 912.548 77.1877 912.102 79.4881C911.333 80.7395 910.443 80.5975 909.737 79.9613C908.8 79.1016 896.584 61.8792 895.954 58.5535C894.304 54.8861 895.382 41.8332 902.219 46.6863L903.386 47.7353" fill="#839C27"/>
<path d="M875.602 42.9561C873.261 38.7287 870.808 34.3831 869.524 29.5931C868.711 26.575 869.102 15.2572 879.883 5.98476C880.625 5.34329 882.722 4.22857 884.344 5.22495C885.215 5.76389 884.835 8.30088 884.449 9.44448C883.263 13.0146 879.804 19.2769 881.573 36.4836C883.481 54.9338 889.635 64.7583 889.79 66.7222C889.454 67.9158 888.693 67.9946 887.979 67.6397C887.029 67.1534 873.267 55.9513 872.004 53.3933C869.85 50.7985 867.795 39.9749 874.421 42.3699L875.602 42.9561Z" fill="#57C6B2"/>
<path d="M860.643 96.5821C852.988 93.8138 845.104 90.9036 836.803 90.0649C831.573 89.5286 812.888 93.2355 800.412 113.721C799.551 115.132 798.257 118.934 800.359 121.36C801.488 122.67 805.595 121.337 807.4 120.39C812.998 117.456 822.459 109.987 851.508 108.284C882.669 106.449 900.649 114.049 903.958 113.773C905.834 112.885 905.769 111.604 904.982 110.513C903.916 109.054 881.588 89.1553 877.009 87.7488C872.101 84.8595 853.581 84.3705 859.352 94.7682L860.643 96.5821" fill="#4BB8E3"/>
<path d="M1094.28 90.5485C1102.97 86.4105 1114.24 81.9412 1121.96 76.0312C1126.58 72.5031 1141.81 50.1331 1137.07 45.9452C1131.2 40.7582 1112.11 57.2261 1108.95 60.7963C1097.23 74.0306 1093.87 83.1138 1091.38 87.6251C1093.51 88.5084 1094.28 90.5485 1094.28 90.5485Z" fill="#FAD51B"/>
<path d="M1085.13 93.6592C1078.52 100.663 1069.62 108.915 1064.56 117.22C1061.54 122.181 1055.41 148.563 1061.34 150.745C1068.69 153.45 1080.54 131.183 1082.19 126.708C1088.34 110.122 1088.2 100.437 1088.89 95.3312C1086.58 95.2813 1085.13 93.6592 1085.13 93.6592" fill="#F253A1"/>
<path d="M1089.16 95.1549C1086.88 107.661 1091.56 132.894 1095.54 142.879C1098.82 151.089 1111.02 161.077 1114.44 159.907C1119.47 158.182 1115.96 136.932 1115.14 133.677C1112.84 124.389 1096.39 102.206 1091.72 94.374L1089.16 95.1549" fill="#991A84"/>
<path d="M1092.16 94.6154C1098.31 105.712 1117.46 122.272 1126.59 127.478C1134.1 131.76 1149.22 131.808 1150.99 128.753C1153.58 124.249 1137.76 110.042 1135.15 108.034C1127.66 102.305 1101.83 95.5145 1093.54 92.3965L1092.16 94.6154" fill="#57C6B2"/>
<path d="M1093.88 92.0445C1105.22 97.6994 1130.37 100.476 1140.85 99.5844C1149.45 98.8509 1161.94 90.3093 1161.66 86.7918C1161.26 81.6074 1140.18 78.8759 1136.89 78.7103C1127.48 78.237 1102.36 87.2965 1093.77 89.4313L1093.88 92.0445" fill="#641F61"/>
<path d="M1091.17 87.3469C1099.2 77.546 1107.52 53.6012 1108.99 43.1747C1110.2 34.6016 1104.68 20.5023 1101.2 19.9897C1096.06 19.2246 1088.69 39.1944 1087.79 42.3729C1085.24 51.4455 1088.44 78.0061 1088.6 86.8763L1091.17 87.3469" fill="#ED2071"/>
<path d="M1089.25 87.6013C1090.59 74.9874 1084.4 50.4011 1079.91 40.8868C1076.22 33.0551 1063.87 24.3164 1060.67 25.8097C1055.97 28.0022 1060.77 48.7318 1061.76 51.8865C1064.61 60.875 1081.85 81.3022 1086.85 88.624L1089.25 87.6013Z" fill="#F2552C"/>
<path d="M1085.9 88.6978C1080.99 77.0014 1063.75 58.446 1055.23 52.2758C1048.23 47.2019 1033.21 45.5088 1031.12 48.3534C1028.06 52.544 1042.24 68.3941 1044.63 70.6734C1051.44 77.1802 1076.38 86.7471 1084.29 90.751L1085.9 88.6978" fill="#B72F9E"/>
<path d="M1084.55 91.1243C1072.33 87.7671 1047.12 89.9202 1037.02 92.8253C1028.71 95.2124 1018.11 106.018 1019.06 109.412C1020.46 114.417 1041.66 113.016 1044.93 112.545C1054.24 111.183 1077.15 97.426 1085.17 93.6613L1084.55 91.1243Z" fill="#EF3B3B"/>
<path d="M1090.96 94.7737C1096.26 92.8572 1093.82 86.2558 1088.76 87.5624C1082.78 89.1056 1084.33 97.1792 1090.96 94.7737Z" fill="#F8AB1C"/>
<path d="M973.853 8.0613C978.351 4.91704 984.534 6.01861 987.67 10.5221C990.809 15.0281 989.709 21.2246 985.213 24.3663C980.721 27.5079 974.53 26.4064 971.394 21.9003C968.258 17.3995 969.362 11.2056 973.853 8.0613Z" fill="#4BB8E3"/>
<path d="M1007.58 14.7891C1010.73 12.586 1015.06 13.3615 1017.26 16.5137C1019.45 19.6632 1018.69 24.0063 1015.54 26.2041C1012.39 28.4046 1008.06 27.6316 1005.87 24.4795C1003.67 21.3273 1004.44 16.9921 1007.58 14.7891Z" fill="#4BB8E3"/>
<path d="M1035.99 10.3906C1038.35 8.74219 1041.59 9.32055 1043.24 11.684C1044.89 14.0501 1044.31 17.3022 1041.95 18.9532C1039.59 20.5963 1036.34 20.0258 1034.7 17.657C1033.05 15.2962 1033.63 12.0363 1035.99 10.3906" fill="#4BB8E3"/>
<path d="M1248.26 2.00146C1248.26 2.00146 1249.38 29.711 1222.69 50.8691C1195.99 72.0271 1209.31 91.2371 1209.31 91.2371C1209.31 91.2371 1183.64 72.8447 1206.85 54.1185C1206.85 54.1185 1195.8 30.7337 1227.34 16.5582C1258.88 2.39059 1248.26 2.00146 1248.26 2.00146" fill="#284089"/>
<path d="M1224.28 2.94289C1224.28 2.94289 1215.27 16.6478 1195.15 17.5942C1175.02 18.5328 1174.8 32.3744 1174.8 32.3744C1174.8 32.3744 1168.8 14.6577 1186.41 13.6744C1186.41 13.6744 1189.16 -1.38439 1209.2 2.70368C1229.24 6.79964 1224.28 2.94289 1224.28 2.94289" fill="#8BC526"/>
<path d="M837.156 54.6235C837.772 58.9009 835.657 73.0396 830.692 76.1681C828.671 75.9814 824.047 64.3508 824.464 55.7119C822.17 60.402 811.122 70.0925 805.692 69.3222C806.256 55.1335 814.355 50.914 819.816 46.0557C813.998 46.6761 805.346 49.0606 798 44.4415C799.661 38.1845 811.615 35.0613 819.525 34.7064C808.687 25.6705 805.939 14.6104 808.702 13.3274C811.274 11.8526 824.664 21.0935 828.353 31.3991C828.264 21.1382 829.666 9.84932 837.213 5.06982C842.908 10.0517 838.287 27.361 835.893 32.8792C841.415 29.7586 856.883 27.1296 859.25 31.4359C858.869 38.0688 847.283 43.3951 839.376 41.915C849.666 47.8223 856.09 58.3304 854.796 61.4615C848.175 63.1073 842.766 58.496 837.156 54.6235" fill="#ED2071"/>
<path d="M831.474 36.565C826.566 32.9843 822.099 39.4437 826.498 43.5581C831.592 48.3086 836.554 40.264 831.474 36.565Z" fill="#FAD51B"/>
<path d="M1407.39 89.5485C1398.7 85.4105 1387.43 80.9412 1379.71 75.0312C1375.09 71.5031 1359.86 49.1331 1364.61 44.9452C1370.47 39.7582 1389.57 56.2261 1392.72 59.7963C1404.44 73.0306 1407.81 82.1138 1410.3 86.6251C1408.16 87.5084 1407.39 89.5485 1407.39 89.5485Z" fill="#FAD51B"/>
<path d="M1416.55 92.6592C1423.16 99.6628 1432.05 107.915 1437.11 116.22C1440.14 121.181 1446.26 147.563 1440.33 149.745C1432.99 152.45 1421.13 130.183 1419.48 125.708C1413.34 109.122 1413.47 99.4367 1412.79 94.3312C1415.09 94.2813 1416.55 92.6592 1416.55 92.6592" fill="#F253A1"/>
<path d="M1412.51 94.1549C1414.79 106.661 1410.11 131.894 1406.13 141.879C1402.85 150.089 1390.65 160.077 1387.24 158.907C1382.2 157.182 1385.72 135.932 1386.53 132.677C1388.84 123.389 1405.28 101.206 1409.95 93.374L1412.51 94.1549Z" fill="#991A84"/>
<path d="M1409.51 93.6154C1403.37 104.712 1384.22 121.272 1375.08 126.478C1367.57 130.76 1352.45 130.808 1350.69 127.753C1348.09 123.249 1363.91 109.042 1366.53 107.034C1374.01 101.305 1399.84 94.5145 1408.13 91.3965L1409.51 93.6154" fill="#57C6B2"/>
<path d="M1407.79 91.0445C1396.45 96.6994 1371.3 99.4756 1360.83 98.5844C1352.22 97.8509 1339.73 89.3093 1340 85.7918C1340.42 80.6074 1361.49 77.8759 1364.78 77.7103C1374.19 77.237 1399.31 86.2965 1407.9 88.4313L1407.79 91.0445" fill="#641F61"/>
<path d="M1410.51 86.3469C1402.47 76.546 1394.15 52.6012 1392.68 42.1747C1391.47 33.6016 1396.99 19.5023 1400.47 18.9897C1405.61 18.2246 1412.97 38.1944 1413.87 41.3729C1416.44 50.4455 1413.23 77.0061 1413.08 85.8763L1410.51 86.3469Z" fill="#ED2071"/>
<path d="M1412.42 86.6013C1411.08 73.9874 1417.27 49.4011 1421.76 39.8868C1425.45 32.0551 1437.8 23.3164 1441 24.8097C1445.71 27.0022 1440.9 47.7318 1439.91 50.8865C1437.07 59.875 1419.82 80.3022 1414.82 87.624L1412.42 86.6013" fill="#F2552C"/>
<path d="M1415.77 87.6978C1420.67 76.0014 1437.92 57.446 1446.43 51.2758C1453.44 46.2019 1468.46 44.5088 1470.54 47.3534C1473.62 51.544 1459.43 67.3941 1457.05 69.6734C1450.23 76.1802 1425.28 85.7471 1417.39 89.751L1415.77 87.6978" fill="#B72F9E"/>
<path d="M1417.12 90.1243C1429.34 86.7671 1454.55 88.9202 1464.65 91.8253C1472.96 94.2124 1483.56 105.018 1482.62 108.412C1481.21 113.417 1460.01 112.016 1456.75 111.545C1447.43 110.183 1424.52 96.426 1416.51 92.6613L1417.12 90.1243Z" fill="#EF3B3B"/>
<path d="M1410.71 93.7737C1405.41 91.8572 1407.85 85.2558 1412.91 86.5624C1418.89 88.1056 1417.35 96.1792 1410.71 93.7737Z" fill="#F8AB1C"/>
<path d="M1497.41 14.7891C1494.27 12.586 1489.93 13.3615 1487.74 16.5137C1485.54 19.6632 1486.31 24.0063 1489.46 26.2041C1492.6 28.4046 1496.94 27.6316 1499.13 24.4795C1501.33 21.3273 1500.56 16.9921 1497.41 14.7891Z" fill="#4BB8E3"/>
<path d="M1469.01 10.3906C1466.65 8.74219 1463.4 9.32055 1461.76 11.684C1460.11 14.0501 1460.69 17.3022 1463.05 18.9532C1465.41 20.5963 1468.66 20.0258 1470.3 17.657C1471.95 15.2962 1471.37 12.0363 1469.01 10.3906" fill="#4BB8E3"/>
<path d="M1256.73 2.00146C1256.73 2.00146 1255.62 29.711 1282.31 50.8691C1309.01 72.0271 1295.68 91.2371 1295.68 91.2371C1295.68 91.2371 1321.35 72.8447 1298.15 54.1185C1298.15 54.1185 1309.2 30.7337 1277.66 16.5582C1246.12 2.39059 1256.73 2.00146 1256.73 2.00146" fill="#284089"/>
<path d="M1280.72 2.94289C1280.72 2.94289 1289.73 16.6478 1309.86 17.5942C1329.98 18.5328 1330.19 32.3744 1330.19 32.3744C1330.19 32.3744 1336.2 14.6577 1318.59 13.6744C1318.59 13.6744 1315.84 -1.38439 1295.8 2.70368C1275.76 6.79964 1280.72 2.94289 1280.72 2.94289" fill="#8BC526"/>
<path d="M1263.37 46.6785C1263.37 52.4438 1258.7 57.1208 1252.94 57.1208C1247.18 57.1208 1242.52 52.4438 1242.52 46.6785C1242.52 40.9157 1247.18 36.2388 1252.94 36.2388C1258.7 36.2388 1263.37 40.9157 1263.37 46.6785Z" fill="#E4212B"/>
</svg>
