<svg width="459" height="333" viewBox="0 0 459 333" fill="none" xmlns="http://www.w3.org/2000/svg">
<g clip-path="url(#clip0_202_453)">
<path d="M287 197L190.503 197C159.966 197 131.872 181.735 131.872 146.931C131.872 103.457 131.872 -52.1713 131.872 -62.5514C131.872 -99.1869 120.268 -123 71.4094 -123C10.3355 -123 -124.638 -123 -259 -123" stroke="#638A4E" stroke-width="2"/>
<ellipse cx="57.1959" cy="69.804" rx="48" ry="64" transform="rotate(-135 57.1959 69.804)" fill="#3C652F"/>
<path d="M20.9999 104L178 -53" stroke="#74AA63" stroke-width="2"/>
<path fill-rule="evenodd" clip-rule="evenodd" d="M408.842 223.351C414.001 226.914 420.258 229 427.002 229C444.675 229 459.002 214.673 459.002 197C459.002 179.327 444.675 165 427.002 165C420.259 165 414.002 167.086 408.843 170.648C387.36 182.402 343.002 193.267 343.002 193.267L343.002 200.733C343.002 200.733 387.358 211.597 408.842 223.351Z" fill="#EB5A35"/>
<path fill-rule="evenodd" clip-rule="evenodd" d="M365.067 276.331C366.196 282.498 369.145 288.398 373.914 293.167C386.411 305.663 406.672 305.663 419.169 293.167C431.665 280.67 431.665 260.409 419.169 247.912C414.4 243.143 408.502 240.195 402.335 239.065C378.832 232.186 339.784 208.502 339.784 208.502L334.504 213.782C334.504 213.782 358.187 252.828 365.067 276.331Z" fill="#EB5A35"/>
<path fill-rule="evenodd" clip-rule="evenodd" d="M296.651 282.84C293.088 287.999 291.002 294.256 291.002 301C291.002 318.673 305.329 333 323.002 333C340.675 333 355.002 318.673 355.002 301C355.002 294.257 352.916 288 349.354 282.841C337.6 261.358 326.735 217 326.735 217L319.269 217C319.269 217 308.405 261.356 296.651 282.84Z" fill="#EB5A35"/>
<path fill-rule="evenodd" clip-rule="evenodd" d="M243.67 239.065C237.503 240.194 231.603 243.143 226.835 247.912C214.338 260.409 214.338 280.67 226.835 293.167C239.331 305.663 259.593 305.663 272.089 293.167C276.858 288.398 279.807 282.5 280.936 276.333C287.816 252.83 311.499 213.782 311.499 213.782L306.219 208.502C306.219 208.502 267.173 232.185 243.67 239.065Z" fill="#EB5A35"/>
<path fill-rule="evenodd" clip-rule="evenodd" d="M237.16 170.649C232.001 167.086 225.744 165 219 165C201.327 165 187 179.327 187 197C187 214.673 201.327 229 219 229C225.743 229 232 226.914 237.159 223.352C258.642 211.598 303 200.733 303 200.733L303 193.267C303 193.267 258.644 182.403 237.16 170.649Z" fill="#EB5A35"/>
<path fill-rule="evenodd" clip-rule="evenodd" d="M280.935 117.669C279.806 111.502 276.857 105.602 272.088 100.834C259.591 88.3369 239.33 88.3369 226.833 100.834C214.337 113.33 214.337 133.592 226.833 146.088C231.602 150.857 237.5 153.806 243.667 154.935C267.17 161.815 306.218 185.498 306.218 185.498L311.498 180.218C311.498 180.218 287.815 141.172 280.935 117.669Z" fill="#EB5A35"/>
<path fill-rule="evenodd" clip-rule="evenodd" d="M349.351 111.16C352.914 106.001 355 99.7443 355 93.0002C355 75.3271 340.673 61.0002 323 61.0002C305.327 61.0002 291 75.3271 291 93.0002C291 99.7437 293.086 106 296.648 111.159C308.402 132.643 319.267 177 319.267 177L326.733 177C326.733 177 337.597 132.645 349.351 111.16Z" fill="#EB5A35"/>
<path fill-rule="evenodd" clip-rule="evenodd" d="M402.334 154.935C408.501 153.806 414.401 150.857 419.169 146.088C431.666 133.591 431.666 113.33 419.169 100.833C406.673 88.3366 386.411 88.3366 373.914 100.833C369.146 105.602 366.197 111.5 365.068 117.667C358.188 141.17 334.505 180.218 334.505 180.218L339.785 185.498C339.785 185.498 378.831 161.815 402.334 154.935Z" fill="#EB5A35"/>
<path d="M320.458 171.653C320.717 168.533 325.283 168.533 325.542 171.653V171.653C325.754 174.207 329.178 174.888 330.352 172.609V172.609C331.785 169.826 336.003 171.573 335.048 174.555V174.555C334.267 176.996 337.17 178.936 339.126 177.279V177.279C341.515 175.256 344.744 178.485 342.721 180.874V180.874C341.064 182.83 343.004 185.733 345.445 184.952V184.952C348.427 183.997 350.174 188.215 347.391 189.648V189.648C345.112 190.822 345.793 194.246 348.347 194.458V194.458C351.467 194.717 351.467 199.283 348.347 199.542V199.542C345.793 199.754 345.112 203.178 347.391 204.352V204.352C350.174 205.785 348.427 210.003 345.445 209.048V209.048C343.004 208.267 341.064 211.17 342.721 213.126V213.126C344.744 215.515 341.515 218.744 339.126 216.721V216.721C337.17 215.064 334.267 217.004 335.048 219.445V219.445C336.003 222.427 331.785 224.174 330.352 221.391V221.391C329.178 219.112 325.754 219.793 325.542 222.347V222.347C325.283 225.467 320.717 225.467 320.458 222.347V222.347C320.246 219.793 316.822 219.112 315.648 221.391V221.391C314.215 224.174 309.997 222.427 310.952 219.445V219.445C311.733 217.004 308.83 215.064 306.874 216.721V216.721C304.485 218.744 301.256 215.515 303.279 213.126V213.126C304.936 211.17 302.996 208.267 300.555 209.048V209.048C297.573 210.003 295.826 205.785 298.609 204.352V204.352C300.888 203.178 300.207 199.754 297.653 199.542V199.542C294.533 199.283 294.533 194.717 297.653 194.458V194.458C300.207 194.246 300.888 190.822 298.609 189.648V189.648C295.826 188.215 297.573 183.997 300.555 184.952V184.952C302.996 185.733 304.936 182.83 303.279 180.874V180.874C301.256 178.485 304.485 175.256 306.874 177.279V177.279C308.83 178.936 311.733 176.996 310.952 174.555V174.555C309.997 171.573 314.215 169.826 315.648 172.609V172.609C316.822 174.888 320.246 174.207 320.458 171.653V171.653Z" fill="#F4B442"/>
<path d="M352.699 167.301L323.001 197" stroke="#DC8433" stroke-width="2"/>
<circle cx="352.699" cy="167.301" r="6" transform="rotate(45 352.699 167.301)" fill="#F4B442"/>
<path d="M361.803 180.927L323 197" stroke="#DC8433" stroke-width="2"/>
<circle cx="361.804" cy="180.927" r="6" transform="rotate(67.5 361.804 180.927)" fill="#F4B442"/>
<path d="M365 197L323 197" stroke="#DC8433" stroke-width="2"/>
<circle cx="365" cy="197" r="6" transform="rotate(90 365 197)" fill="#F4B442"/>
<path d="M361.803 213.073L323 197" stroke="#DC8433" stroke-width="2"/>
<circle cx="361.803" cy="213.073" r="6" transform="rotate(112.5 361.803 213.073)" fill="#F4B442"/>
<path d="M352.699 226.698L323.001 197" stroke="#DC8433" stroke-width="2"/>
<circle cx="352.698" cy="226.698" r="6" transform="rotate(135 352.698 226.698)" fill="#F4B442"/>
<path d="M339.072 235.803L323 197" stroke="#DC8433" stroke-width="2"/>
<circle cx="339.073" cy="235.803" r="6" transform="rotate(157.5 339.073 235.803)" fill="#F4B442"/>
<path d="M323 239L323 197" stroke="#DC8433" stroke-width="2"/>
<circle cx="323" cy="239" r="6" transform="rotate(180 323 239)" fill="#F4B442"/>
<path d="M306.928 235.803L323 197" stroke="#DC8433" stroke-width="2"/>
<circle cx="306.929" cy="235.803" r="6" transform="rotate(-157.5 306.929 235.803)" fill="#F4B442"/>
<path d="M293.303 226.698L323.001 197" stroke="#DC8433" stroke-width="2"/>
<circle cx="293.303" cy="226.699" r="6" transform="rotate(-135 293.303 226.699)" fill="#F4B442"/>
<path d="M284.199 213.073L323.002 197" stroke="#DC8433" stroke-width="2"/>
<circle cx="284.198" cy="213.073" r="6" transform="rotate(-112.5 284.198 213.073)" fill="#F4B442"/>
<path d="M281 197L323 197" stroke="#DC8433" stroke-width="2"/>
<circle cx="281" cy="197" r="6" transform="rotate(-90 281 197)" fill="#F4B442"/>
<path d="M284.199 180.927L323.002 197" stroke="#DC8433" stroke-width="2"/>
<circle cx="284.199" cy="180.927" r="6" transform="rotate(-67.5 284.199 180.927)" fill="#F4B442"/>
<path d="M293.303 167.302L323.001 197" stroke="#DC8433" stroke-width="2"/>
<circle cx="293.304" cy="167.302" r="6" transform="rotate(-45 293.304 167.302)" fill="#F4B442"/>
<path d="M306.93 158.197L323.002 197" stroke="#DC8433" stroke-width="2"/>
<circle cx="306.93" cy="158.197" r="6" transform="rotate(-22.5 306.93 158.197)" fill="#F4B442"/>
<path d="M323.002 155V197" stroke="#DC8433" stroke-width="2"/>
<circle cx="323.002" cy="155" r="6" fill="#F4B442"/>
<path d="M339.072 158.197L323 197" stroke="#DC8433" stroke-width="2"/>
<circle cx="339.071" cy="158.197" r="6" transform="rotate(22.5 339.071 158.197)" fill="#F4B442"/>
</g>
<defs>
<clipPath id="clip0_202_453">
<rect width="459" height="456" fill="white" transform="translate(0 -123)"/>
</clipPath>
</defs>
</svg>
